<?xml version="1.0" standalone="no"?>
<!DOCTYPE svg PUBLIC "-//W3C//DTD SVG 1.1//EN" "http://www.w3.org/Graphics/SVG/1.1/DTD/svg11.dtd" >
<svg xmlns="http://www.w3.org/2000/svg">
<metadata>
This is a custom SVG webfont generated by Fontspring.
Designer    : FontSitecom
Foundry     : FontSite
Foundry URL : httpwwwfontsitecom
</metadata>
<defs>
<font id="GoudySansFSBoldItalic" horiz-adv-x="499" >
<font-face units-per-em="1000" ascent="806" descent="-194" />
<missing-glyph horiz-adv-x="300" />
<glyph unicode=" "  horiz-adv-x="300" />
<glyph unicode="&#x09;" horiz-adv-x="300" />
<glyph unicode="&#xa0;" horiz-adv-x="300" />
<glyph unicode="!" horiz-adv-x="339" d="M107 221l49 437l159 9l-90 -425zM60 63q0 35 26 60t62 25q31 0 50.5 -19.5t19.5 -50.5q0 -35 -25.5 -60.5t-59.5 -25.5q-32 0 -52.5 20t-20.5 51z" />
<glyph unicode="&#x22;" d="M307 412l33 255h109l-80 -255h-62zM152 412l33 255h109l-80 -255h-62z" />
<glyph unicode="#" d="M76 0l39 195h-72l15 76h72l19 99h-72l15 75h71l35 181h79l-35 -181h89l35 181h81l-35 -181h69l-14 -75h-69l-19 -99h68l-14 -76h-69l-38 -195h-81l38 195h-90l-37 -195h-80zM208 271h90l19 99h-90z" />
<glyph unicode="$" d="M71 31q-31 13 -43.5 24t-12.5 27q0 9 6 31l18 70q73 -67 172 -67q41 0 64.5 17t23.5 47q0 20 -15.5 40.5t-55.5 55.5q-73 64 -96.5 98.5t-23.5 78.5q0 35 16 66.5t42 49.5q36 23 93 31l10 65h100l-10 -65q121 -21 121 -60q0 -13 -2 -23l-11 -65q-81 54 -153 54 q-69 0 -69 -49q0 -15 12.5 -29.5t63.5 -59.5q63 -55 89.5 -97.5t26.5 -89.5q0 -67 -45 -112t-127 -61l-17 -106l-102 -14l19 120q-63 11 -94 23z" />
<glyph unicode="%" horiz-adv-x="767" d="M170 240q-59 0 -92 40.5t-33 111.5q0 98 50.5 164t124.5 66q55 0 85.5 -39.5t30.5 -110.5q0 -90 -42 -159q-45 -73 -124 -73zM183 -18l340 635h79l-340 -635h-79zM174 311q37 0 57 80q12 45 12 93q0 67 -33 67q-30 0 -47 -45q-25 -67 -25 -127q0 -68 36 -68zM451 146 q0 98 50.5 164t124.5 66q55 0 85.5 -39.5t30.5 -110.5q0 -90 -42 -159q-45 -73 -124 -73q-59 0 -92 40.5t-33 111.5zM545 133q0 -68 35 -68q19 0 32 18.5t24 61.5q12 47 12 94q0 66 -33 66q-29 0 -46 -45q-24 -62 -24 -127z" />
<glyph unicode="&#x26;" horiz-adv-x="838" d="M47 216q0 85 60 143q31 31 86 54q-38 48 -38 97q0 74 66.5 120t172.5 46q74 0 127 -18t53 -44q0 -4 -7 -22l-34 -77q-48 47 -121 47q-51 0 -83 -24.5t-32 -62.5q0 -48 55 -80q-55 -23 -84 -48q-58 -50 -58 -121q0 -56 50 -92t127 -36q86 0 146.5 40t60.5 97 q0 27 -15.5 42.5t-42.5 15.5q-28 0 -45 -17t-17 -45q0 -15 6 -33h-36q-35 0 -57 19t-22 50q0 55 45.5 89.5t117.5 34.5q31 0 66 -4q83 -8 115 -8q35 0 59.5 10.5t50.5 37.5l11 -78q1 -5 1 -12q0 -28 -21 -45.5t-56 -17.5q-26 0 -56 11q19 -29 19 -66q0 -95 -99 -161 t-242 -66q-145 0 -237 62.5t-92 161.5z" />
<glyph unicode="'" horiz-adv-x="339" d="M149 412l33 255h109l-80 -255h-62z" />
<glyph unicode="(" horiz-adv-x="375" d="M60 139q0 127 42 249.5t110 196.5q35 38 78.5 64.5t69.5 26.5q19 0 30 -14l38 -47q-78 -44 -123 -114q-44 -68 -70 -167.5t-26 -203.5q0 -165 104 -250l-54 -60q-8 -8 -18 -8q-24 0 -67 38q-114 102 -114 289z" />
<glyph unicode=")" horiz-adv-x="374" d="M71 -12q44 67 70 167t26 204q0 165 -104 250l54 59q6 8 19 8q23 0 66 -38q114 -100 114 -288q0 -128 -41.5 -250t-110.5 -196q-35 -38 -78.5 -64.5t-69.5 -26.5q-19 0 -30 14l-38 47q77 43 123 114z" />
<glyph unicode="*" d="M170 330l-68 43q39 19 60 43l47 50l-57 11q-32 6 -44 12.5t-12 18.5q0 8 5 20l33 65q16 -15 62 -32l54 -20l-1 49q0 6 -0.5 15t-0.5 16q0 25 12 35.5t38 10.5h72q-18 -32 -23 -62l-10 -64l43 23q33 18 54 18t27 -17l24 -73h-12q-26 0 -56 -10l-56 -17l31 -43 q21 -29 21 -42t-22 -26l-71 -38q-3 18 -14 50l-22 59l-45 -60q-32 -42 -49 -42q-10 0 -20 7z" />
<glyph unicode="+" horiz-adv-x="500" d="M227 123v199h-202v69h202v199h72v-199h204v-69h-204v-199h-72z" />
<glyph unicode="," horiz-adv-x="268" d="M35 58q0 35 25 59t62 24q32 0 51.5 -19.5t19.5 -51.5q0 -67 -59.5 -118.5t-146.5 -62.5l-4 13q69 27 98 89q-26 14 -36 28.5t-10 38.5z" />
<glyph unicode="-" horiz-adv-x="267" d="M27 202l17 105h200l-17 -105h-200z" />
<glyph unicode="." horiz-adv-x="267" d="M27 63q0 35 26 60t63 25q31 0 50.5 -19.5t19.5 -50.5q0 -34 -26 -60t-60 -26q-32 0 -52.5 20t-20.5 51z" />
<glyph unicode="/" horiz-adv-x="321" d="M1 -15l255 682h96l-256 -682h-95z" />
<glyph unicode="0" d="M225 -10q-91 0 -141.5 65.5t-50.5 183.5q0 92 29 175.5t80 137.5q69 74 166 74q37 0 71 -15t54 -41q53 -64 53 -189q0 -152 -68 -270q-72 -121 -193 -121zM232 103q32 0 54 32t40 105q21 86 21 161q0 112 -56 112q-33 0 -56.5 -35t-42.5 -113q-20 -80 -20 -147 q0 -115 60 -115z" />
<glyph unicode="1" d="M115 0q19 16 27.5 37.5t16.5 72.5l61 383q7 41 7 63q0 23 -9 46l168 24l-93 -589q-4 -24 -11 -30.5t-29 -6.5h-138z" />
<glyph unicode="2" d="M5 0l13 82q137 108 215 198q49 57 69.5 93.5t20.5 68.5q0 30 -19.5 47.5t-53.5 17.5q-68 0 -133 -61l-38 69q-10 19 -10 23q0 30 64.5 59t130.5 29q92 0 149 -47t57 -123q0 -101 -101 -209q-68 -73 -157 -136q28 4 49 5q4 0 15.5 0.5t35 0.5t47.5 1q52 1 94 17l-30 -88 q-11 -30 -28.5 -39t-65.5 -8l-229 7q-26 1 -95 -7z" />
<glyph unicode="3" d="M52 12q-17 7 -22.5 15.5t-7.5 28.5l-6 89q76 -36 147 -36q55 0 88.5 26.5t33.5 70.5q0 42 -33.5 73t-115.5 66q76 19 113 39q53 30 53 77q0 46 -59 46q-54 0 -130 -49l-36 77q-8 16 -8 20q0 23 67.5 47t132.5 24q79 0 128 -38t49 -99q0 -94 -106 -144q91 -49 91 -141 q0 -94 -72 -154t-185 -60q-70 0 -122 22z" />
<glyph unicode="4" d="M-3 132l16 101l345 389h111l-61 -384q47 1 73 12l-26 -84q-8 -24 -15 -29t-32 -5h-17l-23 -145q-4 -30 -11 -37t-36 -15l-132 -33q26 36 39 101l26 129h-257zM150 232h138l42 233z" />
<glyph unicode="5" d="M48 14q-32 13 -32 38q0 5 2 19l13 83q73 -45 139 -45q52 0 84 30.5t32 79.5q0 54 -49.5 90t-142.5 50l83 252q56 -8 104 -8q97 0 206 26l-29 -83q-7 -20 -16 -29t-27 -14q-36 -9 -110 -9h-39l-22 -70q88 -18 138 -72t50 -131q0 -98 -73 -164.5t-180 -66.5q-66 0 -131 24z " />
<glyph unicode="6" d="M45 201q0 94 52.5 189.5t142.5 163.5q36 27 81 49.5t64 22.5q10 0 25 -4l113 -28q-85 -42 -137 -80.5t-116 -107.5q27 7 44 7q65 0 104.5 -47.5t39.5 -124.5q0 -108 -63.5 -179.5t-159.5 -71.5q-88 0 -139 57t-51 154zM179 183q0 -37 15 -58.5t41 -21.5q34 0 58.5 42 t24.5 100q0 75 -51 75q-39 0 -63.5 -38.5t-24.5 -98.5z" />
<glyph unicode="7" d="M103 41q0 106 78 248q38 69 136 210h-111q-82 0 -113 -16l29 103q6 21 13.5 26t33.5 5h365q-80 -112 -174 -276q-102 -180 -102 -314q0 -30 5 -70l-105 27q-35 9 -45 19.5t-10 37.5z" />
<glyph unicode="8" d="M19 167q0 127 115 174q-31 27 -43.5 50.5t-12.5 56.5q0 76 63.5 127t157.5 51q84 0 134 -39.5t50 -105.5q0 -47 -22.5 -80t-76.5 -65q84 -44 84 -125q0 -92 -70 -156.5t-171 -64.5q-93 0 -150.5 49t-57.5 128zM235 412q8 -6 36 -20q79 29 79 78q0 24 -17.5 39t-45.5 15 q-31 0 -54 -20.5t-23 -47.5q0 -28 25 -44zM156 174q0 -33 21.5 -54t55.5 -21q38 0 66.5 28t28.5 66q0 27 -19.5 45t-68.5 36q-46 -21 -65 -43.5t-19 -56.5z" />
<glyph unicode="9" d="M23 17l-8 85q42 -21 98 -21q124 0 159 133q-29 -16 -59 -16q-63 0 -105.5 53.5t-42.5 133.5q0 110 74 184q59 57 149 57q87 0 134.5 -51.5t47.5 -145.5q0 -73 -24 -157t-63 -149q-95 -155 -264 -155q-68 0 -85 17q-8 7 -11 32zM255 293q36 0 59 40t23 102q0 78 -52 78 q-39 0 -60 -38q-25 -47 -25 -107q0 -35 15 -55t40 -20z" />
<glyph unicode=":" horiz-adv-x="268" d="M151 313q-32 0 -52.5 20t-20.5 51q0 35 26 60t62 25q31 0 50.5 -19.5t19.5 -50.5q0 -35 -25.5 -60.5t-59.5 -25.5zM27 63q0 35 26 60t62 25q31 0 50.5 -19.5t19.5 -49.5q0 -35 -25.5 -61t-59.5 -26q-32 0 -52.5 20t-20.5 51z" />
<glyph unicode=";" horiz-adv-x="268" d="M156 313q-31 0 -51.5 20t-20.5 51q0 35 26 60.5t62 25.5q31 0 50.5 -19.5t19.5 -50.5q0 -35 -25.5 -61t-60.5 -26zM35 58q0 35 25 59t62 24q33 0 52 -19.5t19 -51.5q0 -67 -59.5 -118.5t-146.5 -62.5l-4 13q71 29 98 89q-25 13 -35.5 28t-10.5 39z" />
<glyph unicode="&#x3c;" horiz-adv-x="500" d="M47 276v122l433 226v-145l-279 -142l278 -143l1 -144z" />
<glyph unicode="=" horiz-adv-x="500" d="M24 398v67h478v-67h-478zM24 249v67h478v-67h-478z" />
<glyph unicode="&#x3e;" horiz-adv-x="500" d="M47 50v145l279 142l-278 143l-1 144l433 -226v-122z" />
<glyph unicode="?" horiz-adv-x="392" d="M134 244q-19 7 -19 31q0 43 27 87q12 19 22 30.5t57 57.5q35 35 35 65q0 19 -13.5 31t-34.5 12q-46 0 -74 -49l-37 60q-12 19 -12 31q0 31 48 53.5t114 22.5q76 0 118 -32.5t42 -91.5q0 -77 -88 -156q-52 -46 -67 -74q-27 -49 -27 -98v-14zM68 63q0 35 26 60t62 25 q31 0 50.5 -19.5t19.5 -50.5q0 -35 -25.5 -60.5t-59.5 -25.5q-32 0 -52.5 20t-20.5 51z" />
<glyph unicode="@" horiz-adv-x="677" d="M285 149q-52 0 -84.5 36t-32.5 93q0 84 59.5 153.5t130.5 69.5q64 0 95 -52l13 36h73l-78 -236q-9 -29 -9 -37q0 -10 8 -17t20 -7q42 0 89 50q55 61 55 142q0 98 -74 166.5t-180 68.5q-120 0 -202.5 -83.5t-82.5 -205.5t82.5 -205.5t202.5 -83.5q71 0 136 36.5t101 96.5 l53 -1q-38 -79 -119 -128t-174 -49q-139 0 -236 97t-97 236q0 140 97.5 237t238.5 97q125 0 213 -80t88 -195t-89 -185q-62 -49 -123 -49q-54 0 -70 45q-55 -46 -104 -46zM297 186q63 0 99 104l22 63q11 33 11 50q0 24 -14.5 40.5t-34.5 16.5q-45 0 -84 -58 q-19 -28 -33.5 -73t-14.5 -77q0 -29 13.5 -47.5t35.5 -18.5z" />
<glyph unicode="A" horiz-adv-x="695" d="M18 20l-74 57q61 17 109 68.5t98 152.5q55 112 95.5 169t89.5 89q-52 -8 -87 -8q-53 0 -72 9.5t-26 39.5l-19 85q105 -29 329 -29q19 0 28 1q45 3 64 3q28 0 38.5 -20t17.5 -87q16 -131 16 -261q0 -28 -4 -128q-2 -52 -2 -76q0 -52 11 -85h-201q41 40 52 238 q-52 1 -100 1q-51 0 -113 -1q-57 -114 -110 -178t-90 -64q-19 0 -50 24zM323 345q25 -2 74 -2q58 0 87 2q2 64 2 73q0 124 -19 124q-25 0 -68 -59t-76 -138z" />
<glyph unicode="B" horiz-adv-x="571" d="M22 0q17 16 26.5 47t21.5 107l53 335q4 28 4 35q0 41 -53 41q-11 0 -27 -4l32 67q13 26 26.5 35.5t37.5 9.5q53 0 85 -43q68 46 141 46q83 0 133.5 -41.5t50.5 -110.5q0 -59 -33.5 -102t-91.5 -58q109 -28 109 -135q0 -63 -34.5 -115t-95.5 -82q-67 -32 -196 -32 q-11 0 -112 2q-26 0 -77 -2zM251 403q67 3 99 20q59 33 59 90q0 48 -57 48q-41 0 -81 -35zM207 119q14 -1 34 -1q67 0 103 23q49 32 49 89q0 74 -109 74q-19 0 -49 -3z" />
<glyph unicode="C" horiz-adv-x="624" d="M49 304q0 168 98 269.5t260 101.5q108 0 171 -42t63 -114q0 -62 -44.5 -101t-114.5 -39q-64 0 -64 47q0 13 4 25l11 39q14 -9 29 -9q19 0 31.5 10.5t12.5 27.5q0 19 -23 31t-61 12q-96 0 -159 -61q-69 -66 -69 -187q0 -93 43.5 -146t119.5 -53q109 0 231 72l-13 -86 q-4 -30 -11.5 -42t-28.5 -23q-78 -44 -188 -44q-137 0 -217.5 84t-80.5 228z" />
<glyph unicode="D" horiz-adv-x="678" d="M23 0q17 16 26.5 47t21.5 107l52 328q5 32 5 44q0 39 -48 39q-12 0 -33 -4l37 77q10 20 22 27.5t35 7.5q56 0 89 -45q69 47 158 47q126 0 199.5 -76t73.5 -206q0 -86 -32.5 -166t-90.5 -136q-53 -51 -112.5 -71.5t-155.5 -19.5l-96 1q-16 0 -36 0.5t-26 0.5q-26 0 -89 -2 zM208 123q32 -4 54 -4q96 0 150 38q49 34 78 98t29 138q0 78 -36 118.5t-105 40.5q-65 0 -108 -41z" />
<glyph unicode="E" horiz-adv-x="464" d="M10 0q17 16 26.5 46.5t21.5 107.5l59 375q11 73 11 97q0 23 -11 41q27 0 58 -0.5t47.5 -1t25.5 -0.5q43 0 79 1q30 1 77 1q43 0 56.5 -9t13.5 -37q0 -11 -1 -15l-8 -74q-56 18 -145 18q-20 0 -57 -4l-21 -133h71q56 0 89 12l-23 -145q-15 10 -30 12.5t-52 2.5h-74 l-28 -174q47 -4 80 -4q92 0 152 16l-29 -90q-7 -24 -23.5 -33.5t-49.5 -9.5q-49 0 -84 1q-28 1 -82 1q-41 0 -149 -2z" />
<glyph unicode="F" horiz-adv-x="446" d="M10 0q17 16 26.5 47t21.5 107l59 375q11 69 11 97q0 21 -11 41q110 -2 130 -2l175 3q31 1 44 -7.5t13 -29.5q0 -7 -2 -25l-8 -74q-66 18 -141 18q-17 0 -65 -3l-21 -135h75q58 0 87 13l-24 -148q-24 16 -73 16h-84l-24 -155q-11 -75 -11 -97q0 -20 10 -41h-188z" />
<glyph unicode="G" horiz-adv-x="660" d="M52 302q0 170 100.5 271.5t267.5 101.5q104 0 167.5 -42.5t63.5 -112.5q0 -59 -42.5 -99t-106.5 -40q-36 0 -56 12.5t-20 35.5q0 8 3 15l17 49q16 -12 32 -12q19 0 30.5 9t11.5 23q0 22 -27 35.5t-70 13.5q-41 0 -83 -16t-71 -42q-73 -67 -73 -194q0 -95 43.5 -146 t123.5 -51q54 0 97 20l14 87q3 18 3 32q0 21 -11 38h169q-14 -18 -19.5 -33.5t-14.5 -73.5l-37 -231q-8 -51 -23.5 -71.5t-51.5 -25.5l-111 -16q41 43 62 169q-47 -17 -103 -17q-130 0 -207.5 84.5t-77.5 226.5z" />
<glyph unicode="H" horiz-adv-x="606" d="M10 0q17 16 26.5 47t21.5 107l59 375q11 68 11 97q0 21 -11 41h188q-16 -17 -25.5 -48.5t-21.5 -105.5l-18 -111q74 -2 84 -2q1 0 95 2l20 127q11 73 11 97q0 22 -12 41h188q-17 -17 -26.5 -48t-21.5 -106l-59 -375q-11 -67 -11 -96q0 -19 11 -42h-187q16 16 26 47.5 t22 106.5l20 128q-35 2 -92 2q-53 0 -87 -2l-22 -144q-11 -73 -11 -97q0 -20 10 -41h-188z" />
<glyph unicode="I" horiz-adv-x="285" d="M10 0q16 15 26 47t22 107l59 375q11 68 11 97q0 21 -11 41h188q-16 -16 -25.5 -48t-21.5 -106l-60 -375q-10 -63 -10 -97q0 -20 10 -41h-188z" />
<glyph unicode="J" horiz-adv-x="285" d="M33 -11l85 540q11 68 11 97q0 22 -12 41h188q-16 -17 -25.5 -48.5t-21.5 -105.5l-84 -528q-16 -100 -43 -140q-16 -25 -46.5 -39.5t-65.5 -14.5q-39 0 -69 15t-30 34q0 9 1 14l16 84q23 -29 47 -29q21 0 31.5 16.5t17.5 63.5z" />
<glyph unicode="K" horiz-adv-x="588" d="M10 0q17 15 26.5 46.5t21.5 107.5l60 375q10 65 10 97q0 21 -11 41h187q-29 -31 -47 -154l-16 -104l120 112q117 108 172 154l39 -81q10 -21 10 -30q0 -8 -7.5 -16.5t-33.5 -30.5l-214 -177l84 -107q51 -66 87.5 -96t84.5 -48l-55 -68q-21 -25 -40 -25q-31 0 -75 39 q-49 45 -129 155l-64 87l-22 -139q-11 -71 -11 -97q0 -20 11 -41h-188z" />
<glyph unicode="L" horiz-adv-x="428" d="M10 0q17 17 26.5 48t21.5 106l59 375q11 71 11 97q0 21 -11 41h187q-16 -18 -25.5 -48.5t-21.5 -105.5l-62 -393q48 -6 90 -6q69 0 136 19l-33 -99q-7 -21 -19 -27.5t-45 -6.5q-42 0 -70 1q-42 1 -94 1q-62 0 -150 -2z" />
<glyph unicode="M" horiz-adv-x="803" d="M-1 0q17 18 25.5 43t25.5 111l72 375q11 60 11 90q0 28 -12 48h149l126 -461l272 461h154q-27 -26 -45 -154l-53 -375q-10 -68 -10 -96q0 -22 12 -42h-185q18 19 26 42.5t24 111.5l47 271l-243 -425h-59l-110 425l-44 -287q-11 -74 -11 -97q0 -21 10 -41h-182z" />
<glyph unicode="N" horiz-adv-x="695" d="M9 0q17 15 26.5 46.5t21.5 107.5l64 406q-20 42 -79 107h158l290 -458l46 320q11 80 11 96q0 22 -11 42h178q-16 -18 -25.5 -49t-21.5 -105l-81 -513h-92l-266 411l-38 -273q-11 -81 -11 -96q0 -22 10 -42h-180z" />
<glyph unicode="O" horiz-adv-x="624" d="M43 266q0 97 30.5 182.5t86.5 144.5q78 82 205 82q116 0 181 -71t65 -199q0 -91 -28.5 -174t-79.5 -142q-40 -45 -97 -71t-118 -26q-114 0 -179.5 73.5t-65.5 200.5zM290 115q73 0 117 68q60 95 60 230q0 139 -108 139q-74 0 -118 -75q-55 -92 -55 -215q0 -147 104 -147z " />
<glyph unicode="P" horiz-adv-x="535" d="M22 0q17 16 26.5 47t21.5 107l53 333q5 32 5 40q1 17 -13 27.5t-39 10.5q-10 0 -29 -4l34 72q10 22 25 30.5t41 8.5q51 0 82 -42q55 45 129 45q83 0 136 -49t53 -128q0 -102 -83 -169t-209 -67h-26l-20 -124q-11 -66 -11 -97q0 -21 11 -41h-187zM247 375q42 0 88 19 q32 14 51 41.5t19 60.5q0 27 -15.5 42t-43.5 15q-35 0 -76 -31z" />
<glyph unicode="Q" horiz-adv-x="624" d="M20 75q0 5 2 17l12 60q55 -33 146 -33q111 0 191 90t80 214q0 62 -27 95.5t-78 33.5q-56 0 -95 -42t-39 -103q0 -82 74 -82q29 0 57 17l-15 -62q-8 -31 -21 -43q-24 -21 -63 -21q-68 0 -118 48q-55 53 -55 142q0 114 82 191.5t201 77.5q111 0 176 -68.5t65 -185.5 q0 -142 -83 -247q-40 -50 -110 -84q94 -9 148 -55q58 -52 58 -122q0 -50 -41 -63l-96 -30q9 24 9 41q0 76 -78 114q-55 26 -141 26q-32 0 -49 -1q-72 -2 -79 -2q-113 0 -113 77z" />
<glyph unicode="R" horiz-adv-x="589" d="M22 0q17 17 26.5 47.5t21.5 106.5l53 337q5 28 5 39q0 35 -47 35q-10 0 -34 -4l35 70q12 24 25.5 33t38.5 9q52 0 84 -44q56 46 131 46q80 0 129.5 -45t49.5 -117q0 -65 -36 -118.5t-98 -80.5q93 -205 176 -224l-43 -69q-16 -25 -45 -25q-27 0 -53.5 22t-61.5 72 q-51 75 -102 192q-14 -1 -25 -1q-10 0 -20 1l-23 -144q-11 -72 -11 -97q0 -20 11 -41h-187zM249 391l18 -1q54 -3 90.5 30.5t36.5 82.5q0 58 -54 58q-34 0 -69 -34z" />
<glyph unicode="S" horiz-adv-x="446" d="M38 22q-26 18 -26 57l1 87q77 -51 154 -51q40 0 66.5 20.5t26.5 51.5q0 19 -14.5 42t-55.5 68q-71 79 -91.5 114.5t-20.5 80.5q0 82 60 132.5t155 50.5q74 0 121 -29q18 -11 18 -38q0 -9 -1 -14l-9 -83q-57 51 -123 51q-32 0 -53 -17.5t-21 -44.5q0 -23 13.5 -45 t55.5 -67q63 -68 87.5 -111.5t24.5 -88.5q0 -87 -67 -141.5t-174 -54.5q-86 0 -127 30z" />
<glyph unicode="T" horiz-adv-x="588" d="M164 0q16 16 25.5 46t22.5 108l63 392q-14 1 -32 1q-78 0 -143 -13q-22 -4 -49 -19l20 90q8 38 41 51t122 13q48 0 145 -5q98 -5 125 -5q103 0 152 23l-26 -80q-8 -25 -16 -35.5t-23 -17.5q-29 -12 -73 -12q-9 0 -74 4l-28 2l-64 -405q-11 -66 -11 -96q0 -21 11 -42h-188 z" />
<glyph unicode="U" horiz-adv-x="678" d="M73 159q0 22 5 54l44 276q4 21 4 36q0 40 -49 40q-13 0 -32 -4l37 77q17 35 69 35q57 0 88 -31.5t31 -89.5q0 -28 -4 -51l-42 -266q-6 -40 -6 -54q0 -66 70 -66q62 0 117 39q28 20 38.5 40t17.5 64l43 271q10 68 10 97q0 21 -11 41h188q-16 -16 -25.5 -48t-21.5 -106 l-45 -280q-10 -60 -10 -99q0 -26 10 -39t34 -18l-48 -61q-19 -24 -50 -24q-62 0 -78 80q-71 -80 -189 -80q-87 0 -141 46.5t-54 120.5z" />
<glyph unicode="V" horiz-adv-x="713" d="M314 -8l-200 557q-34 95 -56 118h189q-6 -19 -6 -34q0 -20 11 -57l118 -368l186 340q29 53 36 69.5t7 31.5q0 7 -4 18h195q-15 -14 -26.5 -30.5t-43.5 -70.5l-342 -574h-64z" />
<glyph unicode="W" horiz-adv-x="981" d="M307 -8l-197 566q-26 76 -49 109h188q-5 -19 -5 -31q0 -28 18 -87l107 -342l93 170l-56 182q-16 51 -24.5 71t-22.5 37h187q-6 -19 -6 -34q0 -20 14 -75l89 -344l184 359q27 53 27 76q0 2 -2 18h198q-24 -19 -78 -111l-330 -564h-69l-68 235l-132 -235h-66z" />
<glyph unicode="X" horiz-adv-x="606" d="M16 23l-49 96q19 -3 27 -3q27 0 64 14t62 33q66 50 139 180q-34 98 -56 152q-25 63 -73 63q-20 0 -46 -13l19 86q8 40 67 40q64 0 102 -42.5t75 -152.5q53 94 117.5 144.5t129.5 50.5q46 0 46 -33q0 -6 -1 -9l-8 -76q-59 2 -112.5 -46.5t-118.5 -163.5q41 -109 70 -171 q33 -69 91 -69q9 0 16 1l-47 -80q-14 -24 -42 -24q-107 0 -174 216q-60 -95 -121 -146q-35 -29 -77 -49.5t-67 -20.5q-21 0 -33 23z" />
<glyph unicode="Y" horiz-adv-x="588" d="M176 0q17 16 26.5 47t21.5 107l22 144q4 30 4 34q0 63 -70 158q-49 67 -108 67q-12 0 -28 -5l21 82q10 37 64 37q68 0 131 -70q29 -33 44.5 -60.5t39.5 -85.5q57 100 129 177q22 24 33 29.5t39 5.5h141q-79 -64 -171 -178q-77 -97 -101 -138t-31 -86l-20 -127 q-11 -72 -11 -97q0 -20 11 -41h-187z" />
<glyph unicode="Z" horiz-adv-x="588" d="M-1 -3q12 110 78.5 203.5t261.5 270.5q55 49 79 77q-28 -3 -41 -3q-19 0 -121 5q-15 1 -46 1q-88 0 -143 -21l28 103q6 23 31.5 30.5t93.5 7.5q26 0 120 -7q127 -11 194 -11q42 0 84 10q-21 -85 -75.5 -159t-197.5 -211q-116 -113 -151 -169q30 3 43 3q61 0 147 -8 q26 -2 42 -2q73 0 123 18l-27 -88q-10 -31 -31 -42.5t-68 -11.5q-23 0 -124 9q-96 8 -161 8q-74 0 -139 -13z" />
<glyph unicode="[" horiz-adv-x="374" d="M36 -187l135 854h249l-12 -74h-105l-112 -706h105l-11 -74h-249z" />
<glyph unicode="\" horiz-adv-x="321" d="M143 -15l-40 682h96l39 -682h-95z" />
<glyph unicode="]" horiz-adv-x="374" d="M-33 -113h105l112 706h-106l12 74h249l-135 -854h-249z" />
<glyph unicode="^" horiz-adv-x="500" d="M29 352l153 318h162l153 -318h-129l-105 220l-105 -220h-129z" />
<glyph unicode="_" horiz-adv-x="500" d="M0 -57h500v-87h-500v87z" />
<glyph unicode="`" horiz-adv-x="500" d="M260 543l-94 122h137l52 -122h-95z" />
<glyph unicode="a" horiz-adv-x="517" d="M23 172q0 70 33.5 142.5t83.5 112.5q60 47 131 47q57 0 93 -39l5 10q9 14 16.5 18t24.5 4h81q-28 -51 -50 -147t-22 -169q0 -42 15.5 -58.5t57.5 -17.5l-6 -21q-18 -63 -78 -63q-33 0 -57.5 20t-35.5 55q-53 -75 -133 -75q-70 0 -114.5 50.5t-44.5 130.5zM198 100 q45 0 78 72q13 28 24 75.5t11 76.5q0 19 -10 30t-27 11q-43 0 -79 -63t-36 -139q0 -63 39 -63z" />
<glyph unicode="b" d="M14 -1l92 580q9 54 9 79q0 13 -4 32l151 24l-43 -274q45 34 95 34q73 0 116.5 -49.5t43.5 -132.5q0 -69 -28 -137t-73 -107q-68 -58 -155 -58q-37 0 -75 17q-45 20 -64 20q-26 0 -65 -28zM168 119q24 -20 51 -20q48 0 84 64q35 67 35 134q0 68 -49 68q-81 0 -110 -178z " />
<glyph unicode="c" horiz-adv-x="446" d="M24 180q0 64 27.5 126t74.5 106q69 64 165 64q69 0 110 -29.5t41 -79.5q0 -49 -40.5 -84t-98.5 -35q-17 0 -24 8t-7 27t5 44h8q19 0 31 9t12 23q0 25 -35 25q-49 0 -91 -65t-42 -141q0 -79 69 -79q71 0 162 68l-9 -58q-7 -41 -12 -54t-19 -23q-57 -42 -141 -42 q-86 0 -136 51t-50 139z" />
<glyph unicode="d" horiz-adv-x="517" d="M23 176q0 118 73.5 208t170.5 90q41 0 73 -23l22 137q8 51 8 67t-5 35l152 24l-79 -498q-8 -49 -8 -73q0 -35 15.5 -51t50.5 -16h2l-8 -27q-18 -58 -75 -58q-66 0 -95 72q-51 -73 -139 -73q-72 0 -115 50.5t-43 135.5zM200 99q46 0 79 71q12 26 23 73t11 73q0 49 -38 49 q-43 0 -79.5 -63t-36.5 -137q0 -66 41 -66z" />
<glyph unicode="e" horiz-adv-x="428" d="M22 175q0 123 77 212t183 89q60 0 94.5 -27.5t34.5 -74.5q0 -78 -70 -128.5t-186 -55.5q-1 -9 -1 -19q0 -35 17.5 -53.5t49.5 -18.5q55 0 147 63l-9 -58q-8 -54 -28 -71q-23 -19 -61 -31t-75 -12q-79 0 -126 50.5t-47 134.5zM167 268q5 1 12 3q55 11 88 36.5t33 57.5 q0 25 -26 25q-33 0 -61.5 -33t-45.5 -89z" />
<glyph unicode="f" horiz-adv-x="303" d="M61 111l40 250h-25q-18 0 -32 -2l12 73q3 19 11.5 27t24.5 8h26l15 98q12 76 50.5 111t110.5 35q85 0 85 -47q0 -7 -8 -26l-21 -51q-20 15 -41 15q-20 0 -30.5 -16t-16.5 -56l-10 -63h26q14 0 36 3l-10 -66q-6 -43 -42 -43h-27l-41 -258q-26 -159 -64 -238 q-14 -29 -28.5 -40.5t-36.5 -11.5h-119q42 37 69 106.5t46 191.5z" />
<glyph unicode="g" horiz-adv-x="481" d="M18 36q27 20 76 25q-24 14 -33.5 27t-9.5 31q0 45 54 68q-48 34 -48 93q0 47 23 90.5t62 68.5q50 34 119 34q51 0 101 -23h72q39 0 70 8l-22 -72q-8 -27 -37 -27q-12 0 -43 4q7 -34 7 -50q0 -38 -17.5 -72.5t-47.5 -56.5q-42 -30 -110 -33q-62 -3 -62 -33q0 -32 88 -41 q98 -10 132 -37q35 -26 35 -77q0 -69 -66.5 -111t-174.5 -42q-101 0 -159 34.5t-58 94.5q0 62 49 97zM220 220q39 0 58 58q11 31 11 63q0 45 -37 45q-40 0 -59 -56q-11 -30 -11 -60q0 -50 38 -50zM92 -53q0 -40 93 -40q114 0 114 48q0 22 -22 31t-74 9q-59 0 -85 -11 t-26 -37z" />
<glyph unicode="h" horiz-adv-x="517" d="M14 0l94 588q7 43 7 65q0 14 -4 37l151 24l-44 -280q62 39 122 39q57 0 88.5 -28t31.5 -80q0 -22 -7 -64l-21 -133q-4 -24 -4 -39q0 -44 46 -44q7 0 31 3l-30 -64q-15 -33 -63 -33q-56 0 -89 29.5t-33 79.5q0 18 8 67l21 136q4 23 4 32q0 29 -29 29q-35 0 -68 -30 q-27 -24 -34 -68l-44 -266h-134z" />
<glyph unicode="i" horiz-adv-x="267" d="M185 548q-30 0 -48 16.5t-18 44.5q0 32 24 55t58 23q29 0 47 -17t18 -44q0 -34 -23 -56t-58 -22zM35 107q0 16 10 80l26 163q7 43 7 65q0 19 -5 36l152 24l-47 -296q-6 -35 -6 -53q0 -40 44 -40q2 0 34 2l-29 -62q-17 -35 -60 -35q-60 0 -93 30.5t-33 85.5z" />
<glyph unicode="j" horiz-adv-x="268" d="M193 548q-30 0 -48 16.5t-18 44.5q0 32 24 55t58 23q29 0 47 -17t18 -45q0 -33 -23 -55t-58 -22zM38 44l48 304q8 48 8 70q0 17 -5 33l152 24l-69 -432q-13 -82 -28.5 -124t-41.5 -65q-50 -44 -120 -44q-61 0 -71 29q-2 10 -2 26l1 75q20 -21 45 -21q35 0 53.5 27.5 t29.5 97.5z" />
<glyph unicode="k" horiz-adv-x="481" d="M14 0l94 588q7 44 7 65q0 16 -4 37l151 24l-63 -397l117 99q41 35 57.5 45t32.5 10q24 0 35 -30l25 -77h-8q-26 0 -73 -32l-84 -57q41 -100 84.5 -151.5t94.5 -62.5l-73 -56q-22 -17 -35 -17q-40 0 -89 71t-73 162l-30 -23l-32 -198h-134z" />
<glyph unicode="l" horiz-adv-x="267" d="M35 100q0 26 10 89l63 397q7 47 7 67q0 13 -4 37l151 23l-85 -535q-5 -32 -5 -54q0 -39 47 -39q9 0 30 3l-30 -64q-16 -33 -60 -33q-58 0 -91 29t-33 80z" />
<glyph unicode="m" horiz-adv-x="767" d="M37 0l49 298q5 29 5 45q0 43 -52 43q-11 0 -26 -5l29 62q14 29 65 29q67 0 97 -52q61 54 134 54t106 -54q36 29 68 41t75 12q56 0 89 -28t33 -75q0 -17 -5 -47l-23 -148q-5 -40 -5 -51q0 -18 11.5 -28.5t31.5 -10.5q12 0 35 4l-26 -58q-18 -40 -67 -40q-53 0 -87.5 31 t-34.5 78q0 21 9 84l20 129q1 6 1.5 10.5t1 7t1 3.5t0.5 2v1q0 27 -24 27q-34 0 -59.5 -27t-32.5 -69l-43 -268h-135l51 315q2 14 2 21q0 29 -23 29q-32 0 -59 -28.5t-33 -68.5l-43 -268h-136z" />
<glyph unicode="n" horiz-adv-x="535" d="M37 0l50 309q3 18 3 35q0 42 -50 42q-11 0 -27 -5l32 61q9 17 20.5 23.5t34.5 6.5q71 0 101 -58q69 59 149 59q59 0 93.5 -27t34.5 -74q0 -22 -4 -43l-27 -169q-3 -16 -3 -33q0 -42 52 -42q8 0 26 3l-21 -51q-11 -26 -26.5 -36t-43.5 -10q-59 0 -91 29.5t-32 83.5 q0 30 6 63l23 144q2 16 2 24q0 29 -25 29q-36 0 -64 -26.5t-35 -67.5l-44 -270h-134z" />
<glyph unicode="o" d="M26 200q0 66 26.5 126.5t72.5 97.5q65 53 159 53q89 0 137 -51.5t48 -148.5q0 -124 -71 -205t-181 -81q-89 0 -140 56t-51 153zM223 100q61 0 90 78q21 55 21 108q0 43 -14.5 62.5t-45.5 19.5q-47 0 -78.5 -49.5t-31.5 -125.5q0 -93 59 -93z" />
<glyph unicode="p" horiz-adv-x="517" d="M24 -88l61 389q5 37 5 44q0 40 -47 40q-11 0 -30 -4l27 60q14 31 61 31q35 0 57.5 -13t43.5 -45q58 59 131 59q72 0 115 -48.5t43 -129.5q0 -120 -73.5 -212.5t-168.5 -92.5q-46 0 -75 20l-16 -100q-5 -30 -5 -55q0 -21 9 -42h-179q32 38 41 99zM200 145q0 -46 34 -46 q46 0 83.5 63t37.5 142q0 60 -42 60q-23 0 -44 -17.5t-34 -47.5t-24 -77.5t-11 -76.5z" />
<glyph unicode="q" horiz-adv-x="500" d="M24 178q0 69 31 138.5t80 106.5q63 50 145 50q42 0 108 -26q15 -6 27 -6q28 0 64 26l-85 -535q-6 -35 -6 -58t6 -46l-154 -22l35 222q-26 -22 -45.5 -29.5t-47.5 -7.5q-70 0 -114 52t-44 135zM204 96q38 0 69 48.5t42 127.5l11 76q-24 16 -49 16q-52 0 -85 -66 q-32 -62 -32 -128q0 -34 12 -54t32 -20z" />
<glyph unicode="r" horiz-adv-x="357" d="M14 0l56 346q7 45 7 71q0 17 -4 36l131 22l-13 -82q27 42 54.5 60.5t62.5 18.5q48 0 48 -36q0 -3 -2 -15l-12 -77q-22 14 -46 14q-47 0 -73 -29t-36 -92l-38 -237h-135z" />
<glyph unicode="s" horiz-adv-x="392" d="M36 12q-29 15 -29 46q0 13 3 31l9 56q49 -46 123 -46q64 0 64 42q0 13 -9 23.5t-39 33.5q-61 45 -81 72.5t-20 65.5q0 62 50.5 101t130.5 39q60 0 99 -18.5t39 -47.5q0 -8 -7 -27l-20 -56q-53 46 -109 46q-44 0 -44 -32q0 -11 9 -21t45 -37q54 -41 73.5 -69.5t19.5 -65.5 q0 -73 -54 -115.5t-147 -42.5q-66 0 -106 22z" />
<glyph unicode="t" horiz-adv-x="303" d="M52 109q0 25 5 58l31 194h-21q-15 0 -36 -7l11 67q8 46 55 46h11l4 25q4 21 4 38q0 27 -7 51l151 25l-26 -139l28 1q14 0 45 8l-16 -62q-7 -30 -21.5 -40.5t-48.5 -12.5l-31 -195q-2 -12 -2 -30q0 -40 48 -40q22 0 50 7l-9 -60q-5 -28 -24.5 -40t-61.5 -12 q-139 0 -139 118z" />
<glyph unicode="u" horiz-adv-x="517" d="M45 94q0 13 4 43l27 172q3 18 3 36q0 22 -9.5 28t-44.5 8l29 65q12 26 54 26q49 0 78 -29.5t29 -78.5q0 -29 -4 -53l-28 -174q-1 -6 -1 -17q0 -25 25 -25q40 0 68 39q22 31 32 94l20 124q6 37 6 62q0 20 -4 37l152 24l-49 -305q-4 -25 -4 -42q0 -23 11 -33t37 -10 q8 0 30 3l-24 -55q-19 -42 -71 -42q-78 0 -99 58q-62 -59 -142 -59q-59 0 -92 27.5t-33 76.5z" />
<glyph unicode="v" horiz-adv-x="482" d="M48 126q0 34 21 118q19 72 19 94q0 40 -51 40q-11 0 -32 -4l31 67q14 31 67 31q57 0 90.5 -30t33.5 -82q0 -39 -22 -132q-20 -82 -20 -100q0 -33 22 -33q41 0 81.5 95t40.5 191q0 49 -15 86h104q29 0 39 -15.5t10 -61.5q0 -69 -20 -144.5t-52 -125.5q-40 -62 -93.5 -96 t-112.5 -34q-65 0 -103 36.5t-38 99.5z" />
<glyph unicode="w" horiz-adv-x="731" d="M45 117q0 34 19 111q21 80 21 111q0 39 -46 39q-10 0 -34 -4l31 68q14 30 68 30q56 0 88.5 -29t32.5 -81q0 -26 -5.5 -54t-32.5 -145q-4 -15 -4 -32q0 -36 29 -36q28 0 53.5 42.5t41.5 114.5q23 99 30 215h145q-20 -81 -39 -187.5t-19 -142.5q0 -41 32 -41q42 0 82.5 94 t40.5 190q0 48 -16 87h88q40 0 49 -7q17 -12 17 -76q0 -74 -24.5 -153.5t-64.5 -134.5q-34 -47 -86.5 -76t-102.5 -29q-85 0 -110 72q-56 -73 -145 -73q-61 0 -100 35.5t-39 91.5z" />
<glyph unicode="x" d="M44 11l-66 59q50 11 82.5 36t79.5 89q26 35 45 55q-35 70 -58 95q-26 26 -59 26q-2 0 -20 -2l20 68q10 35 57 35q93 0 140 -133q88 133 182 133q42 0 45 -38l6 -73q-14 3 -20 3q-32 0 -66 -26.5t-90 -95.5q5 -12 8 -20q27 -64 36 -81t25 -28q21 -15 48 -15q13 0 25 2 l-18 -64q-7 -24 -21 -33.5t-42 -9.5q-53 0 -84 34.5t-58 124.5q-90 -157 -166 -157q-14 0 -31 16z" />
<glyph unicode="y" horiz-adv-x="464" d="M78 -46q71 96 71 143q0 24 -27 104t-49 122q-26 52 -77 60l55 70q15 19 41 19q94 0 145 -284l33 74q63 142 63 191q0 8 -1 14h146q-40 -161 -213 -455q-79 -136 -115 -177q-18 -22 -42 -22h-149q27 24 49 50.5t70 90.5z" />
<glyph unicode="z" d="M-22 0l318 374q-32 -7 -74 -7h-70q-35 0 -53 -5t-36 -20l14 86q5 31 24.5 41.5t71.5 10.5q43 0 109 -6q96 -8 155 -8q46 0 85 8l-317 -380q45 0 98 -16q61 -19 99 -19q42 0 79 21l-37 -93q-15 -37 -77 -37q-23 0 -52.5 7t-152.5 41q-48 13 -97 13q-33 0 -87 -11z" />
<glyph unicode="{" horiz-adv-x="392" d="M91 -46q0 52 39 157q13 36 13 57q0 51 -73 70l3 22q62 18 88 59q3 5 4 9l3 8q2 4 3 9t2 8.5t1.5 11t0.5 12.5t0.5 16.5t0.5 19.5t0.5 25.5t0.5 30.5q1 118 56 156.5t237 50.5l-5 -27q-89 -20 -118 -63t-30 -157q0 -77 -31.5 -119.5t-104.5 -64.5q86 -41 86 -112 q0 -33 -22 -112q-12 -46 -12 -87q0 -40 25 -62.5t79 -31.5l-4 -27q-127 9 -181 30q-61 24 -61 111z" />
<glyph unicode="|" horiz-adv-x="500" d="M190 -167v834h146v-834h-146z" />
<glyph unicode="}" horiz-adv-x="393" d="M77 60q0 77 32 121t104 64q-46 23 -66 49t-20 63q0 29 23 111q12 46 12 87q0 40 -25 62.5t-81 31.5l5 27q126 -9 182 -30q61 -24 61 -109q0 -56 -39 -158q-14 -39 -14 -58q0 -51 73 -69l-4 -23q-59 -17 -82 -48.5t-22 -95.5l1 -66q1 -71 -20 -111t-69 -62 q-52 -23 -204 -33l4 28q90 19 119 62t30 157z" />
<glyph unicode="~" horiz-adv-x="667" d="M177 554l-71 59q56 135 148 135q35 0 113 -35q60 -26 78 -26q40 0 73 63l71 -59q-30 -73 -65.5 -103t-91.5 -30q-19 0 -37.5 6t-72.5 30q-52 23 -74 23q-38 0 -71 -63z" />
<glyph unicode="&#xa1;" horiz-adv-x="339" d="M188 320q-31 0 -50.5 19.5t-19.5 50.5q0 34 26 60t60 26q32 0 52.5 -20t20.5 -51q0 -35 -26 -60t-63 -25zM21 -200l90 426l118 21l-49 -437z" />
<glyph unicode="&#xa2;" d="M176 -42l22 138q-58 16 -88.5 60.5t-30.5 111.5q0 92 52 159.5t132 79.5l13 79h100l-12 -79q92 -18 92 -56q0 -9 -7 -25l-23 -53q-60 32 -107 32q-49 0 -78.5 -34t-29.5 -90q0 -85 83 -85q47 0 124 36l-9 -62q-5 -37 -30.5 -54.5t-81.5 -25.5l-19 -120z" />
<glyph unicode="&#xa3;" d="M25 0q76 60 109.5 116t31.5 122l-1 31h-38q-11 0 -71 -2l30 63q11 24 16.5 27.5t28.5 3.5h23q-16 72 -16 104q0 71 50.5 114t134.5 43q81 0 149 -37q36 -19 36 -36q0 -10 -5 -23l-31 -76q-54 67 -128 67q-38 0 -59 -19t-21 -53q0 -23 10 -67l4 -17h62q60 0 91 3l-34 -67 q-10 -19 -19 -23.5t-36 -4.5h-52q2 -26 2 -29q0 -58 -44 -134q32 2 37 2q20 0 35 -1q38 -2 50 -2q54 0 110 20l-52 -95q-10 -19 -20.5 -24.5t-33.5 -5.5l-269 1q-44 0 -80 -1z" />
<glyph unicode="&#xa4;" horiz-adv-x="712" d="M58 108l100 100q-39 64 -39 132q0 60 41 134l-102 101l75 76l104 -104q43 23 70.5 31.5t62.5 8.5q34 0 60.5 -8t69.5 -31l103 102l74 -75l-100 -100q42 -67 42 -136q0 -60 -39 -130l100 -100l-74 -75l-99 99q-67 -42 -132 -42q-66 0 -143 42l-99 -99zM246 341 q0 -51 36.5 -87.5t86.5 -36.5q52 0 88 36.5t36 87.5t-36 87.5t-86 36.5q-52 0 -88.5 -36t-36.5 -88z" />
<glyph unicode="&#xa5;" d="M120 0q10 18 14.5 28.5t13 41.5t17.5 80h-172l15 95h163l-19 70h-133l15 95h93q-24 84 -41 124.5t-44 82.5h191q-13 -73 5 -157l27 -125l60 120q37 74 53 162h191q-40 -41 -69 -81t-80 -126h91l-15 -95h-133l-40 -70h162l-15 -95h-170q-9 -67 -9.5 -99t6.5 -51h-177z" />
<glyph unicode="&#xa6;" horiz-adv-x="500" d="M190 316v351h146v-351h-146zM190 153h146v-320h-146v320z" />
<glyph unicode="&#xa7;" d="M34 -42l26 76q65 -70 137 -70q26 0 42.5 13.5t16.5 35.5q0 20 -16 39t-93 91q-56 53 -78.5 89.5t-22.5 76.5q0 105 121 160q-26 34 -26 69q0 64 46 101t123 37q62 0 111.5 -15.5t49.5 -34.5l-2 -18l-14 -89q-72 65 -127 65q-23 0 -37 -11t-14 -30t15.5 -37.5t88.5 -87.5 q50 -47 70 -81.5t20 -72.5q0 -104 -120 -152q44 -45 44 -91q0 -67 -52.5 -111t-132.5 -44q-60 0 -119.5 26t-59.5 52q0 6 3 14zM282 180q29 11 46 30t17 41q0 19 -14.5 38t-103.5 113q-60 -28 -60 -71t115 -151z" />
<glyph unicode="&#xa8;" horiz-adv-x="500" d="M391 541q-27 0 -42.5 15t-15.5 42q0 29 20.5 49t50.5 20q26 0 41.5 -16t15.5 -43q0 -29 -19.5 -48t-50.5 -19zM211 541q-28 0 -43.5 15t-15.5 41q0 30 20.5 50t50.5 20q26 0 42 -16t16 -43q0 -29 -20 -48t-50 -19z" />
<glyph unicode="&#xa9;" horiz-adv-x="770" d="M51 333q0 142 102 243t245 101q146 0 247 -100.5t101 -245.5q0 -142 -103 -241.5t-250 -99.5q-139 0 -240.5 101.5t-101.5 241.5zM109 333q0 -119 84.5 -206t200.5 -87q122 0 208 85t86 206q0 123 -84.5 209.5t-204.5 86.5t-205 -86t-85 -208zM218 333q0 92 50.5 143.5 t141.5 51.5q44 0 89 -11t45 -22q0 -5 -3 -14l-21 -62q-46 33 -97 33q-50 0 -78.5 -31.5t-28.5 -86.5q0 -56 27 -87t77 -31q55 0 120 45v-73q0 -19 -11 -25q-45 -24 -112 -24q-95 0 -147 50.5t-52 143.5z" />
<glyph unicode="&#xaa;" horiz-adv-x="357" d="M159 262q-51 0 -84 31.5t-33 80.5q0 72 51 125t119 53q37 0 66 -26q10 15 15.5 18.5t18.5 3.5h51q-19 -35 -32 -88.5t-13 -98.5q0 -24 9 -34.5t29 -10.5h10l-5 -15q-12 -39 -52 -39q-43 0 -59 39q-40 -39 -91 -39zM165 331q32 0 56 41q22 42 22 84q0 27 -28 27 q-31 0 -56 -34.5t-25 -76.5q0 -41 31 -41z" />
<glyph unicode="&#xab;" horiz-adv-x="588" d="M260 269q70 38 110 69.5t85 84.5h91q-41 -104 -126 -159q64 -67 85 -147h-94q-48 63 -77 92t-74 60zM195 117q-52 66 -79 93.5t-72 58.5q69 38 109 69.5t86 84.5h90q-41 -105 -125 -159q62 -65 85 -147h-94z" />
<glyph unicode="&#xac;" horiz-adv-x="500" d="M47 162v127h433v-289h-142v162h-291z" />
<glyph unicode="&#xad;" horiz-adv-x="267" d="M27 202l17 105h200l-17 -105h-200z" />
<glyph unicode="&#xae;" horiz-adv-x="770" d="M51 333q0 142 102 243t245 101q146 0 247 -100.5t101 -245.5q0 -142 -103 -241.5t-250 -99.5q-139 0 -240.5 101.5t-101.5 241.5zM109 333q0 -119 84.5 -206t200.5 -87q122 0 208 85t86 206q0 123 -84.5 209.5t-204.5 86.5t-205 -86t-85 -208zM247 143q12 20 15 34.5 t3 50.5v213q0 33 -3.5 49t-16.5 36q28 -3 87 -3q9 0 66 1q63 1 100 -30t37 -86q0 -63 -51 -96q39 -59 66 -87t61 -44l-68 -36q-17 -7 -25 -7q-19 0 -44 32q-36 46 -77 120q-11 -2 -26 -2h-11v-60q0 -36 3 -50.5t15 -34.5h-131zM359 359q7 -1 16 -1q70 0 70 49q0 50 -68 50 q-2 0 -18 -2v-96z" />
<glyph unicode="&#xaf;" horiz-adv-x="500" d="M155 594l10 61h303l-10 -61h-303z" />
<glyph unicode="&#xb0;" horiz-adv-x="500" d="M264 359q-64 0 -110 45.5t-46 110.5t46 110.5t110 45.5q65 0 110 -46t45 -112q0 -63 -45.5 -108.5t-109.5 -45.5zM263 416q40 0 69 29t29 68q0 42 -29 71.5t-70 29.5q-39 0 -67.5 -29.5t-28.5 -69.5q0 -41 28.5 -70t68.5 -29z" />
<glyph unicode="&#xb1;" horiz-adv-x="500" d="M227 136v192h-203v69h203v199h72v-199h203v-69h-203v-192h-72zM24 25v69h478v-69h-478z" />
<glyph unicode="&#xb2;" horiz-adv-x="321" d="M16 421l9 55q191 136 191 209q0 17 -12 27t-32 10q-43 0 -83 -37l-26 43q-8 14 -8 15q0 19 41.5 36.5t84.5 17.5q59 0 96.5 -29t37.5 -75q0 -96 -159 -200q30 2 40 2q80 1 112 11l-21 -56q-7 -19 -18.5 -24t-46.5 -5q-31 0 -92 3q-9 1 -27 1q-25 0 -87 -4z" />
<glyph unicode="&#xb3;" horiz-adv-x="321" d="M59 428q-19 7 -20 28l-5 58q46 -24 98 -24q32 0 52 15t20 40t-23 44t-77 39q53 13 77 25q32 17 32 44q0 25 -35 25q-36 0 -82 -30l-25 47q-6 11 -6 14q0 14 43 29t85 15q52 0 84.5 -23t32.5 -61q0 -56 -64 -85q56 -28 56 -85q0 -56 -46.5 -92t-117.5 -36q-46 0 -79 13z " />
<glyph unicode="&#xb4;" horiz-adv-x="500" d="M233 543l80 122h137l-122 -122h-95z" />
<glyph unicode="&#xb5;" horiz-adv-x="517" d="M16 -88l29 185q0 12 4 40l27 172q3 18 3 36q0 22 -9.5 28t-44.5 8l29 65q12 26 54 26q49 0 78 -29.5t29 -78.5q0 -29 -4 -53l-28 -174q-1 -6 -1 -17q0 -25 25 -25q40 0 68 39q22 31 32 94l20 124q6 37 6 62q0 20 -4 37l152 24l-49 -305q-4 -25 -4 -42q0 -23 11 -33 t37 -10q8 0 30 3l-24 -55q-19 -42 -71 -42q-78 0 -99 58q-62 -59 -142 -59q-4 0 -10.5 0.5t-9.5 0.5l-13 -81q-5 -30 -5 -55q0 -21 9 -42h-166q32 38 41 99z" />
<glyph unicode="&#xb6;" horiz-adv-x="615" d="M189 -113l68 432q-82 0 -125.5 36.5t-43.5 105.5q0 44 19 85.5t52 69.5t74.5 39.5t108.5 11.5h254l-8 -55h-53l-115 -725h-70l115 725h-91l-115 -725h-70z" />
<glyph unicode="&#xb7;" horiz-adv-x="242" d="M41 167l26 161h137l-26 -161h-137z" />
<glyph unicode="&#xb8;" horiz-adv-x="446" d="M107 -99q32 -24 70 -24q37 0 37 26q0 14 -14.5 22t-39.5 8q-7 0 -12 -1l13 77l57 -5l-7 -45q69 -3 69 -58q0 -32 -26.5 -51.5t-70.5 -19.5q-31 0 -56 10.5t-25 24.5q0 6 1 11z" />
<glyph unicode="&#xb9;" horiz-adv-x="321" d="M96 421q14 14 19 25.5t10 42.5l36 227q4 29 4 35q0 13 -6 31l112 16l-56 -353q-2 -15 -7 -19.5t-20 -4.5h-92z" />
<glyph unicode="&#xba;" horiz-adv-x="321" d="M163 262q-57 0 -88.5 31.5t-31.5 87.5q0 74 49.5 123.5t122.5 49.5q56 0 86 -29.5t30 -84.5q0 -76 -48.5 -127t-119.5 -51zM171 331q28 0 48 34t20 81q0 39 -33 39q-28 0 -49 -31t-21 -73q0 -50 35 -50z" />
<glyph unicode="&#xbb;" horiz-adv-x="588" d="M267 115q41 105 125 158q-62 67 -85 147h95q49 -64 76 -91.5t74 -59.5q-70 -39 -109 -69.5t-86 -84.5h-90zM51 115q42 106 125 158q-62 67 -85 147h94q47 -62 76 -91t75 -60q-71 -39 -110 -70t-85 -84h-90z" />
<glyph unicode="&#xbc;" horiz-adv-x="767" d="M72 246q14 14 19 25.5t10 42.5l36 227q4 24 4 35q0 14 -6 31l112 16l-56 -353q-2 -15 -7 -19.5t-20 -4.5h-92zM159 -18l340 635h80l-341 -635h-79zM419 78l10 61l218 235h75l-36 -228q33 1 46 7l-17 -53q-4 -15 -9 -18.5t-19 -3.5h-12l-13 -84q-3 -18 -8 -23t-24 -10 l-88 -21q17 19 26 64l15 74h-164zM523 142h83l22 131z" />
<glyph unicode="&#xbd;" horiz-adv-x="767" d="M45 246q14 14 19 25.5t10 42.5l36 227q4 29 4 36q0 12 -6 30l112 16l-56 -353q-2 -15 -7 -19.5t-20 -4.5h-92zM125 -18l340 635h79l-340 -635h-79zM417 0l9 55q191 138 191 210q0 17 -12 26.5t-32 9.5q-43 0 -83 -37l-26 43q-8 14 -8 15q0 19 41 36.5t85 17.5 q59 0 96.5 -29t37.5 -75q0 -95 -159 -200q15 2 40 2q79 0 112 12l-21 -57q-7 -19 -18.5 -24t-47.5 -5q-30 0 -91 3q-9 1 -28 1q-25 0 -86 -4z" />
<glyph unicode="&#xbe;" horiz-adv-x="767" d="M57 253q-19 7 -20 28l-5 58q46 -24 98 -24q32 0 52 15t20 40t-23 44t-77 39q53 13 77 25q32 17 32 44q0 25 -35 25q-36 0 -82 -30l-25 47q-6 11 -6 14q0 14 43.5 29t84.5 15q52 0 84.5 -23t32.5 -61q0 -56 -64 -85q56 -28 56 -85q0 -56 -46.5 -92t-117.5 -36 q-46 0 -79 13zM193 -18l340 635h80l-340 -635h-80zM427 78l9 61l219 235h74l-36 -228q32 1 47 7l-18 -53q-5 -15 -9.5 -18.5t-18.5 -3.5h-11l-14 -84q-3 -19 -7.5 -23.5t-23.5 -9.5l-89 -21q16 19 26 64l15 74h-163zM530 142h83l22 131z" />
<glyph unicode="&#xbf;" horiz-adv-x="392" d="M233 319q-31 0 -50.5 19.5t-19.5 50.5q0 35 25.5 61t59.5 26q32 0 52.5 -20t20.5 -51q0 -35 -26 -60.5t-62 -25.5zM-18 -85q0 83 88 156q50 42 72 84.5t22 101.5l92 -34q18 -7 18 -32q0 -45 -27 -86q-13 -19 -23 -30.5t-56 -57.5q-35 -35 -35 -65q0 -19 13.5 -31 t34.5 -12q48 0 74 49l37 -60q13 -22 13 -30q0 -32 -48 -54.5t-115 -22.5q-76 0 -118 32.5t-42 91.5z" />
<glyph unicode="&#xc0;" horiz-adv-x="695" d="M405 737l-97 125h141l54 -125h-98zM18 20l-74 57q61 17 109 68.5t98 152.5q55 112 95.5 169t89.5 89q-52 -8 -87 -8q-53 0 -72 9.5t-26 39.5l-19 85q105 -29 329 -29q19 0 28 1q45 3 64 3q28 0 38.5 -20t17.5 -87q16 -131 16 -261q0 -28 -4 -128q-2 -52 -2 -76 q0 -52 11 -85h-201q41 40 52 238q-52 1 -100 1q-51 0 -113 -1q-57 -114 -110 -178t-90 -64q-19 0 -50 24zM323 345q25 -2 74 -2q58 0 87 2q2 64 2 73q0 124 -19 124q-25 0 -68 -59t-76 -138z" />
<glyph unicode="&#xc1;" horiz-adv-x="695" d="M452 733l82 125h141l-125 -125h-98zM18 20l-74 57q61 17 109 68.5t98 152.5q55 112 95.5 169t89.5 89q-52 -8 -87 -8q-53 0 -72 9.5t-26 39.5l-19 85q105 -29 329 -29q19 0 28 1q45 3 64 3q28 0 38.5 -20t17.5 -87q16 -131 16 -261q0 -28 -4 -128q-2 -52 -2 -76 q0 -52 11 -85h-201q41 40 52 238q-52 1 -100 1q-51 0 -113 -1q-57 -114 -110 -178t-90 -64q-19 0 -50 24zM323 345q25 -2 74 -2q58 0 87 2q2 64 2 73q0 124 -19 124q-25 0 -68 -59t-76 -138z" />
<glyph unicode="&#xc2;" horiz-adv-x="695" d="M328 736l109 119h127l54 -119h-90l-34 66l-66 -66h-100zM18 20l-74 57q61 17 109 68.5t98 152.5q55 112 95.5 169t89.5 89q-52 -8 -87 -8q-53 0 -72 9.5t-26 39.5l-19 85q105 -29 329 -29q19 0 28 1q45 3 64 3q28 0 38.5 -20t17.5 -87q16 -131 16 -261q0 -28 -4 -128 q-2 -52 -2 -76q0 -52 11 -85h-201q41 40 52 238q-52 1 -100 1q-51 0 -113 -1q-57 -114 -110 -178t-90 -64q-19 0 -50 24zM323 345q25 -2 74 -2q58 0 87 2q2 64 2 73q0 124 -19 124q-25 0 -68 -59t-76 -138z" />
<glyph unicode="&#xc3;" horiz-adv-x="695" d="M318 745l-39 34q65 75 127 75q21 0 81 -19q50 -17 73 -17q33 0 64 30l40 -34q-64 -77 -119 -77q-24 0 -79 20q-59 20 -85 20q-28 0 -63 -32zM18 20l-74 57q61 17 109 68.5t98 152.5q55 112 95.5 169t89.5 89q-52 -8 -87 -8q-53 0 -72 9.5t-26 39.5l-19 85 q105 -29 329 -29q19 0 28 1q45 3 64 3q28 0 38.5 -20t17.5 -87q16 -131 16 -261q0 -28 -4 -128q-2 -52 -2 -76q0 -52 11 -85h-201q41 40 52 238q-52 1 -100 1q-51 0 -113 -1q-57 -114 -110 -178t-90 -64q-19 0 -50 24zM323 345q25 -2 74 -2q58 0 87 2q2 64 2 73 q0 124 -19 124q-25 0 -68 -59t-76 -138z" />
<glyph unicode="&#xc4;" horiz-adv-x="695" d="M591 731q-28 0 -44.5 15.5t-16.5 41.5q0 31 21 51.5t52 20.5q27 0 43.5 -16.5t16.5 -43.5q0 -30 -20.5 -49.5t-51.5 -19.5zM404 731q-28 0 -44 15.5t-16 42.5q0 30 21 50.5t52 20.5q27 0 43 -16.5t16 -43.5q0 -30 -20.5 -49.5t-51.5 -19.5zM18 20l-74 57q61 17 109 68.5 t98 152.5q55 112 95.5 169t89.5 89q-52 -8 -87 -8q-53 0 -72 9.5t-26 39.5l-19 85q105 -29 329 -29q19 0 28 1q45 3 64 3q28 0 38.5 -20t17.5 -87q16 -131 16 -261q0 -28 -4 -128q-2 -52 -2 -76q0 -52 11 -85h-201q41 40 52 238q-52 1 -100 1q-51 0 -113 -1 q-57 -114 -110 -178t-90 -64q-19 0 -50 24zM323 345q25 -2 74 -2q58 0 87 2q2 64 2 73q0 124 -19 124q-25 0 -68 -59t-76 -138z" />
<glyph unicode="&#xc5;" horiz-adv-x="695" d="M510 715q-41 0 -66 24t-25 63q0 44 32 74.5t78 30.5q39 0 63 -23.5t24 -62.5q0 -47 -30 -76.5t-76 -29.5zM515 771q18 0 30 12.5t12 31.5q0 16 -9.5 26t-24.5 10q-19 0 -32 -12.5t-13 -32.5q0 -35 37 -35zM18 20l-74 57q61 17 109 68.5t98 152.5q55 112 95.5 169t89.5 89 q-52 -8 -87 -8q-53 0 -72 9.5t-26 39.5l-19 85q105 -29 329 -29q19 0 28 1q45 3 64 3q28 0 38.5 -20t17.5 -87q16 -131 16 -261q0 -28 -4 -128q-2 -52 -2 -76q0 -52 11 -85h-201q41 40 52 238q-52 1 -100 1q-51 0 -113 -1q-57 -114 -110 -178t-90 -64q-19 0 -50 24zM323 345 q25 -2 74 -2q58 0 87 2q2 64 2 73q0 124 -19 124q-25 0 -68 -59t-76 -138z" />
<glyph unicode="&#xc6;" horiz-adv-x="820" d="M21 17l-78 61q58 16 105.5 67t99.5 155q62 123 93.5 167t86.5 89q-52 -7 -74 -7q-53 0 -80 12q-18 8 -25 38l-18 83q86 -25 256 -25q37 0 198 6q91 4 164 4q58 0 68 -6q16 -9 16 -39v-12l-10 -78q-53 16 -128 16q-34 0 -66 -2l-21 -135h62q58 0 89 14l-23 -146 q-21 16 -82 16h-65l-27 -175q52 -3 74 -3q90 0 147 15l-31 -94q-8 -23 -21.5 -31t-46.5 -7l-179 2q-56 0 -128 -2q16 16 25.5 46t22.5 108l14 84q-59 3 -86 3q-28 0 -91 -3q-123 -241 -197 -241q-18 0 -44 20zM316 346q29 -1 70 -1t70 1l27 173q2 16 2 18q0 14 -18 14 q-29 0 -70 -55.5t-81 -149.5z" />
<glyph unicode="&#xc7;" horiz-adv-x="624" d="M150 57q-100 87 -100 247q0 167 98 269t260 102q108 0 171 -42t63 -114q0 -62 -44.5 -101t-114.5 -39q-64 0 -64 47q0 13 4 25l11 39q14 -9 29 -9q19 0 31 10.5t12 27.5q0 20 -23 31.5t-61 11.5q-43 0 -86 -16.5t-72 -44.5q-69 -66 -69 -188q0 -93 43.5 -146t119.5 -53 q108 0 231 73l-13 -86q-5 -34 -14.5 -47t-40.5 -27q-77 -35 -182 -35l-6 -39q75 -5 75 -64q0 -35 -28 -56.5t-74 -21.5q-33 0 -59 11.5t-27 26.5q0 7 1 13l4 28q36 -27 71 -27q40 0 40 29q0 14 -14.5 23t-39.5 9h-12l13 73q-47 9 -75.5 22t-57.5 38z" />
<glyph unicode="&#xc8;" horiz-adv-x="464" d="M267 737l-97 125h141l54 -125h-98zM10 0q17 16 26.5 46.5t21.5 107.5l59 375q11 73 11 97q0 23 -11 41q27 0 58 -0.5t47.5 -1t25.5 -0.5q43 0 79 1q30 1 77 1q43 0 56.5 -9t13.5 -37q0 -11 -1 -15l-8 -74q-56 18 -145 18q-20 0 -57 -4l-21 -133h71q56 0 89 12l-23 -145 q-15 10 -30 12.5t-52 2.5h-74l-28 -174q47 -4 80 -4q92 0 152 16l-29 -90q-7 -24 -23.5 -33.5t-49.5 -9.5q-49 0 -84 1q-28 1 -82 1q-41 0 -149 -2z" />
<glyph unicode="&#xc9;" horiz-adv-x="464" d="M275 733l82 125h141l-125 -125h-98zM10 0q17 16 26.5 46.5t21.5 107.5l59 375q11 73 11 97q0 23 -11 41q27 0 58 -0.5t47.5 -1t25.5 -0.5q43 0 79 1q30 1 77 1q43 0 56.5 -9t13.5 -37q0 -11 -1 -15l-8 -74q-56 18 -145 18q-20 0 -57 -4l-21 -133h71q56 0 89 12l-23 -145 q-15 10 -30 12.5t-52 2.5h-74l-28 -174q47 -4 80 -4q92 0 152 16l-29 -90q-7 -24 -23.5 -33.5t-49.5 -9.5q-49 0 -84 1q-28 1 -82 1q-41 0 -149 -2z" />
<glyph unicode="&#xca;" horiz-adv-x="464" d="M165 736l109 119h127l54 -119h-90l-34 66l-66 -66h-100zM10 0q17 16 26.5 46.5t21.5 107.5l59 375q11 73 11 97q0 23 -11 41q27 0 58 -0.5t47.5 -1t25.5 -0.5q43 0 79 1q30 1 77 1q43 0 56.5 -9t13.5 -37q0 -11 -1 -15l-8 -74q-56 18 -145 18q-20 0 -57 -4l-21 -133h71 q56 0 89 12l-23 -145q-15 10 -30 12.5t-52 2.5h-74l-28 -174q47 -4 80 -4q92 0 152 16l-29 -90q-7 -24 -23.5 -33.5t-49.5 -9.5q-49 0 -84 1q-28 1 -82 1q-41 0 -149 -2z" />
<glyph unicode="&#xcb;" horiz-adv-x="464" d="M413 731q-28 0 -44.5 15.5t-16.5 41.5q0 31 21 51.5t52 20.5q27 0 43.5 -16.5t16.5 -43.5q0 -30 -20.5 -49.5t-51.5 -19.5zM226 731q-28 0 -44 15.5t-16 42.5q0 30 21 50.5t52 20.5q27 0 43 -16.5t16 -43.5q0 -30 -20.5 -49.5t-51.5 -19.5zM10 0q17 16 26.5 46.5 t21.5 107.5l59 375q11 73 11 97q0 23 -11 41q27 0 58 -0.5t47.5 -1t25.5 -0.5q43 0 79 1q30 1 77 1q43 0 56.5 -9t13.5 -37q0 -11 -1 -15l-8 -74q-56 18 -145 18q-20 0 -57 -4l-21 -133h71q56 0 89 12l-23 -145q-15 10 -30 12.5t-52 2.5h-74l-28 -174q47 -4 80 -4 q92 0 152 16l-29 -90q-7 -24 -23.5 -33.5t-49.5 -9.5q-49 0 -84 1q-28 1 -82 1q-41 0 -149 -2z" />
<glyph unicode="&#xcc;" horiz-adv-x="285" d="M177 737l-97 125h141l54 -125h-98zM10 0q16 15 26 47t22 107l59 375q11 68 11 97q0 21 -11 41h188q-16 -16 -25.5 -48t-21.5 -106l-60 -375q-10 -63 -10 -97q0 -20 10 -41h-188z" />
<glyph unicode="&#xcd;" horiz-adv-x="285" d="M179 733l82 125h141l-125 -125h-98zM10 0q16 15 26 47t22 107l59 375q11 68 11 97q0 21 -11 41h188q-16 -16 -25.5 -48t-21.5 -106l-60 -375q-10 -63 -10 -97q0 -20 10 -41h-188z" />
<glyph unicode="&#xce;" horiz-adv-x="285" d="M70 736l109 119h127l54 -119h-90l-34 66l-66 -66h-100zM10 0q16 15 26 47t22 107l59 375q11 68 11 97q0 21 -11 41h188q-16 -16 -25.5 -48t-21.5 -106l-60 -375q-10 -63 -10 -97q0 -20 10 -41h-188z" />
<glyph unicode="&#xcf;" horiz-adv-x="285" d="M312 731q-25 0 -39.5 15t-14.5 41q0 31 19.5 52t47.5 21q23 0 37.5 -16t14.5 -43q0 -30 -18.5 -50t-46.5 -20zM144 731q-25 0 -39.5 15t-14.5 41q0 31 19.5 52t47.5 21q23 0 37.5 -16t14.5 -43q0 -30 -18.5 -50t-46.5 -20zM10 0q16 15 26 47t22 107l59 375q11 68 11 97 q0 21 -11 41h188q-16 -16 -25.5 -48t-21.5 -106l-60 -375q-10 -63 -10 -97q0 -20 10 -41h-188z" />
<glyph unicode="&#xd0;" horiz-adv-x="678" d="M23 0q17 16 26.5 47t21.5 106l20 126h-50l18 110h49l15 93q5 32 5 44q0 39 -48 39q-12 0 -33 -4l37 77q10 20 22 27.5t35 7.5q56 0 89 -45q68 47 158 47q126 0 199.5 -76t73.5 -206q0 -87 -32.5 -167t-90.5 -136q-53 -51 -112.5 -71t-155.5 -19l-96 1q-16 0 -36 0.5 t-26 0.5q-26 0 -89 -2zM208 123q32 -4 54 -4q95 0 150 37q49 34 78 98.5t29 138.5q0 78 -36 118.5t-105 40.5q-67 0 -108 -41l-19 -122h96l-18 -110h-96z" />
<glyph unicode="&#xd1;" horiz-adv-x="695" d="M289 745l-39 34q65 75 127 75q21 0 81 -19q50 -17 73 -17q33 0 64 30l40 -34q-64 -77 -119 -77q-24 0 -79 20q-59 20 -85 20q-28 0 -63 -32zM9 0q17 15 26.5 46.5t21.5 107.5l64 406q-20 42 -79 107h158l290 -458l46 320q11 80 11 96q0 22 -11 42h178q-16 -18 -25.5 -49 t-21.5 -105l-81 -513h-92l-266 411l-38 -273q-11 -81 -11 -96q0 -22 10 -42h-180z" />
<glyph unicode="&#xd2;" horiz-adv-x="624" d="M347 737l-97 125h141l54 -125h-98zM43 266q0 97 30.5 182.5t86.5 144.5q78 82 205 82q116 0 181 -71t65 -199q0 -91 -28.5 -174t-79.5 -142q-40 -45 -97 -71t-118 -26q-114 0 -179.5 73.5t-65.5 200.5zM290 115q73 0 117 68q60 95 60 230q0 139 -108 139q-74 0 -118 -75 q-55 -92 -55 -215q0 -147 104 -147z" />
<glyph unicode="&#xd3;" horiz-adv-x="624" d="M342 733l82 125h141l-125 -125h-98zM43 266q0 97 30.5 182.5t86.5 144.5q78 82 205 82q116 0 181 -71t65 -199q0 -91 -28.5 -174t-79.5 -142q-40 -45 -97 -71t-118 -26q-114 0 -179.5 73.5t-65.5 200.5zM290 115q73 0 117 68q60 95 60 230q0 139 -108 139q-74 0 -118 -75 q-55 -92 -55 -215q0 -147 104 -147z" />
<glyph unicode="&#xd4;" horiz-adv-x="624" d="M246 736l109 119h127l54 -119h-90l-34 66l-66 -66h-100zM43 266q0 97 30.5 182.5t86.5 144.5q78 82 205 82q116 0 181 -71t65 -199q0 -91 -28.5 -174t-79.5 -142q-40 -45 -97 -71t-118 -26q-114 0 -179.5 73.5t-65.5 200.5zM290 115q73 0 117 68q60 95 60 230 q0 139 -108 139q-74 0 -118 -75q-55 -92 -55 -215q0 -147 104 -147z" />
<glyph unicode="&#xd5;" horiz-adv-x="624" d="M277 745l-39 34q65 75 127 75q21 0 81 -19q50 -17 73 -17q33 0 64 30l40 -34q-64 -77 -119 -77q-24 0 -79 20q-59 20 -85 20q-28 0 -63 -32zM43 266q0 97 30.5 182.5t86.5 144.5q78 82 205 82q116 0 181 -71t65 -199q0 -91 -28.5 -174t-79.5 -142q-40 -45 -97 -71 t-118 -26q-114 0 -179.5 73.5t-65.5 200.5zM290 115q73 0 117 68q60 95 60 230q0 139 -108 139q-74 0 -118 -75q-55 -92 -55 -215q0 -147 104 -147z" />
<glyph unicode="&#xd6;" horiz-adv-x="624" d="M507 731q-28 0 -44.5 15.5t-16.5 41.5q0 31 21 51.5t52 20.5q27 0 43.5 -16.5t16.5 -43.5q0 -30 -20.5 -49.5t-51.5 -19.5zM320 731q-28 0 -44 15.5t-16 42.5q0 30 21 50.5t52 20.5q27 0 43 -16.5t16 -43.5q0 -30 -20.5 -49.5t-51.5 -19.5zM43 266q0 97 30.5 182.5 t86.5 144.5q78 82 205 82q116 0 181 -71t65 -199q0 -91 -28.5 -174t-79.5 -142q-40 -45 -97 -71t-118 -26q-114 0 -179.5 73.5t-65.5 200.5zM290 115q73 0 117 68q60 95 60 230q0 139 -108 139q-74 0 -118 -75q-55 -92 -55 -215q0 -147 104 -147z" />
<glyph unicode="&#xd7;" horiz-adv-x="500" d="M113 156l-50 51l152 151l-150 149l49 49l149 -150l151 152l50 -51l-152 -151l151 -150l-49 -48l-150 151z" />
<glyph unicode="&#xd8;" horiz-adv-x="624" d="M28 -19l-51 51l91 91q-27 68 -27 150q0 89 30 173t83 143q77 86 205 86q118 0 188 -73l72 71l50 -52l-83 -83q23 -61 23 -134q0 -93 -29.5 -177.5t-81.5 -142.5q-39 -43 -96.5 -67.5t-119.5 -24.5q-99 0 -173 70zM183 226l268 279q-31 51 -96 51q-81 0 -128 -92 q-48 -93 -45 -203zM202 155q30 -45 88 -45q88 0 135 99q18 38 30.5 95t12.5 104q0 14 -1 26z" />
<glyph unicode="&#xd9;" horiz-adv-x="678" d="M350 737l-97 125h141l54 -125h-98zM73 159q0 22 5 54l44 276q4 21 4 36q0 40 -49 40q-13 0 -32 -4l37 77q17 35 69 35q57 0 88 -31.5t31 -89.5q0 -28 -4 -51l-42 -266q-6 -40 -6 -54q0 -66 70 -66q62 0 117 39q28 20 38.5 40t17.5 64l43 271q10 68 10 97q0 21 -11 41h188 q-16 -16 -25.5 -48t-21.5 -106l-45 -280q-10 -60 -10 -99q0 -26 10 -39t34 -18l-48 -61q-19 -24 -50 -24q-62 0 -78 80q-71 -80 -189 -80q-87 0 -141 46.5t-54 120.5z" />
<glyph unicode="&#xda;" horiz-adv-x="678" d="M362 733l82 125h141l-125 -125h-98zM73 159q0 22 5 54l44 276q4 21 4 36q0 40 -49 40q-13 0 -32 -4l37 77q17 35 69 35q57 0 88 -31.5t31 -89.5q0 -28 -4 -51l-42 -266q-6 -40 -6 -54q0 -66 70 -66q62 0 117 39q28 20 38.5 40t17.5 64l43 271q10 68 10 97q0 21 -11 41 h188q-16 -16 -25.5 -48t-21.5 -106l-45 -280q-10 -60 -10 -99q0 -26 10 -39t34 -18l-48 -61q-19 -24 -50 -24q-62 0 -78 80q-71 -80 -189 -80q-87 0 -141 46.5t-54 120.5z" />
<glyph unicode="&#xdb;" horiz-adv-x="678" d="M272 736l109 119h127l54 -119h-90l-34 66l-66 -66h-100zM73 159q0 22 5 54l44 276q4 21 4 36q0 40 -49 40q-13 0 -32 -4l37 77q17 35 69 35q57 0 88 -31.5t31 -89.5q0 -28 -4 -51l-42 -266q-6 -40 -6 -54q0 -66 70 -66q62 0 117 39q28 20 38.5 40t17.5 64l43 271 q10 68 10 97q0 21 -11 41h188q-16 -16 -25.5 -48t-21.5 -106l-45 -280q-10 -60 -10 -99q0 -26 10 -39t34 -18l-48 -61q-19 -24 -50 -24q-62 0 -78 80q-71 -80 -189 -80q-87 0 -141 46.5t-54 120.5z" />
<glyph unicode="&#xdc;" horiz-adv-x="678" d="M517 731q-28 0 -44.5 15.5t-16.5 41.5q0 31 21 51.5t52 20.5q27 0 43.5 -16.5t16.5 -43.5q0 -30 -20.5 -49.5t-51.5 -19.5zM330 731q-28 0 -44 15.5t-16 42.5q0 30 21 50.5t52 20.5q27 0 43 -16.5t16 -43.5q0 -30 -20.5 -49.5t-51.5 -19.5zM73 159q0 22 5 54l44 276 q4 21 4 36q0 40 -49 40q-13 0 -32 -4l37 77q17 35 69 35q57 0 88 -31.5t31 -89.5q0 -28 -4 -51l-42 -266q-6 -40 -6 -54q0 -66 70 -66q62 0 117 39q28 20 38.5 40t17.5 64l43 271q10 68 10 97q0 21 -11 41h188q-16 -16 -25.5 -48t-21.5 -106l-45 -280q-10 -60 -10 -99 q0 -26 10 -39t34 -18l-48 -61q-19 -24 -50 -24q-62 0 -78 80q-71 -80 -189 -80q-87 0 -141 46.5t-54 120.5z" />
<glyph unicode="&#xdd;" horiz-adv-x="588" d="M341 733l82 125h141l-125 -125h-98zM176 0q17 16 26.5 47t21.5 107l22 144q4 30 4 34q0 63 -70 158q-49 67 -108 67q-12 0 -28 -5l21 82q10 37 64 37q68 0 131 -70q29 -33 44.5 -60.5t39.5 -85.5q57 100 129 177q22 24 33 29.5t39 5.5h141q-79 -64 -171 -178 q-77 -97 -101 -138t-31 -86l-20 -127q-11 -72 -11 -97q0 -20 11 -41h-187z" />
<glyph unicode="&#xde;" horiz-adv-x="535" d="M21 0q16 15 26 47t22 107l59 375q11 68 11 97q0 21 -11 41h188q-14 -15 -21.5 -36t-17.5 -71q33 8 64 8q83 0 136 -49t53 -128q0 -101 -83 -168.5t-207 -67.5h-28l-3 -17q-10 -56 -10 -97q0 -20 10 -41h-188zM230 268q46 0 88 19q32 14 51 41.5t19 60.5q0 26 -15.5 41.5 t-43.5 15.5q-34 0 -76 -31z" />
<glyph unicode="&#xdf;" horiz-adv-x="571" d="M-5 0q18 19 26 40t16 71l69 438q15 93 56 125q48 37 123 37q89 0 140.5 -45t51.5 -122q0 -49 -19 -82t-65 -66q139 -65 139 -190q0 -89 -59 -152t-143 -63q-48 0 -82.5 17.5t-34.5 41.5q0 6 2 22l11 71q40 -38 82 -38q38 0 62.5 29t24.5 74q0 102 -138 173 q103 74 103 151q0 34 -18.5 56t-46.5 22q-25 0 -38 -21t-22 -77l-63 -397q-8 -49 -8 -75q0 -20 7 -40h-176z" />
<glyph unicode="&#xe0;" horiz-adv-x="517" d="M265 543l-94 122h137l52 -122h-95zM23 172q0 70 33.5 142.5t83.5 112.5q60 47 131 47q57 0 93 -39l5 10q9 14 16.5 18t24.5 4h81q-28 -51 -50 -147t-22 -169q0 -42 15.5 -58.5t57.5 -17.5l-6 -21q-18 -63 -78 -63q-33 0 -57.5 20t-35.5 55q-53 -75 -133 -75 q-70 0 -114.5 50.5t-44.5 130.5zM198 100q45 0 78 72q13 28 24 75.5t11 76.5q0 19 -10 30t-27 11q-43 0 -79 -63t-36 -139q0 -63 39 -63z" />
<glyph unicode="&#xe1;" horiz-adv-x="517" d="M278 543l80 122h137l-122 -122h-95zM23 172q0 70 33.5 142.5t83.5 112.5q60 47 131 47q57 0 93 -39l5 10q9 14 16.5 18t24.5 4h81q-28 -51 -50 -147t-22 -169q0 -42 15.5 -58.5t57.5 -17.5l-6 -21q-18 -63 -78 -63q-33 0 -57.5 20t-35.5 55q-53 -75 -133 -75 q-70 0 -114.5 50.5t-44.5 130.5zM198 100q45 0 78 72q13 28 24 75.5t11 76.5q0 19 -10 30t-27 11q-43 0 -79 -63t-36 -139q0 -63 39 -63z" />
<glyph unicode="&#xe2;" horiz-adv-x="517" d="M189 546l105 116h123l54 -116h-88l-33 65l-64 -65h-97zM23 172q0 70 33.5 142.5t83.5 112.5q60 47 131 47q57 0 93 -39l5 10q9 14 16.5 18t24.5 4h81q-28 -51 -50 -147t-22 -169q0 -42 15.5 -58.5t57.5 -17.5l-6 -21q-18 -63 -78 -63q-33 0 -57.5 20t-35.5 55 q-53 -75 -133 -75q-70 0 -114.5 50.5t-44.5 130.5zM198 100q45 0 78 72q13 28 24 75.5t11 76.5q0 19 -10 30t-27 11q-43 0 -79 -63t-36 -139q0 -63 39 -63z" />
<glyph unicode="&#xe3;" horiz-adv-x="517" d="M202 555l-37 33q63 72 122 72q23 0 79 -19q51 -16 70 -16q29 0 61 29l38 -32q-60 -75 -113 -75q-24 0 -77 19q-56 20 -82 20t-61 -31zM23 172q0 70 33.5 142.5t83.5 112.5q60 47 131 47q57 0 93 -39l5 10q9 14 16.5 18t24.5 4h81q-28 -51 -50 -147t-22 -169 q0 -42 15.5 -58.5t57.5 -17.5l-6 -21q-18 -63 -78 -63q-33 0 -57.5 20t-35.5 55q-53 -75 -133 -75q-70 0 -114.5 50.5t-44.5 130.5zM198 100q45 0 78 72q13 28 24 75.5t11 76.5q0 19 -10 30t-27 11q-43 0 -79 -63t-36 -139q0 -63 39 -63z" />
<glyph unicode="&#xe4;" horiz-adv-x="517" d="M431 541q-27 0 -42.5 15t-15.5 42q0 29 20.5 49t50.5 20q26 0 41.5 -16t15.5 -43q0 -29 -19.5 -48t-50.5 -19zM251 541q-28 0 -43.5 15t-15.5 41q0 30 20.5 50t50.5 20q26 0 42 -16t16 -43q0 -29 -20 -48t-50 -19zM23 172q0 70 33.5 142.5t83.5 112.5q60 47 131 47 q57 0 93 -39l5 10q9 14 16.5 18t24.5 4h81q-28 -51 -50 -147t-22 -169q0 -42 15.5 -58.5t57.5 -17.5l-6 -21q-18 -63 -78 -63q-33 0 -57.5 20t-35.5 55q-53 -75 -133 -75q-70 0 -114.5 50.5t-44.5 130.5zM198 100q45 0 78 72q13 28 24 75.5t11 76.5q0 19 -10 30t-27 11 q-43 0 -79 -63t-36 -139q0 -63 39 -63z" />
<glyph unicode="&#xe5;" horiz-adv-x="517" d="M340 519q-40 0 -64 23.5t-24 61.5q0 43 31 72.5t75 29.5q38 0 61.5 -23t23.5 -60q0 -46 -29 -75t-74 -29zM345 573q18 0 29.5 12t11.5 31q0 16 -9 26t-24 10q-19 0 -31.5 -12.5t-12.5 -31.5q0 -35 36 -35zM23 172q0 70 33.5 142.5t83.5 112.5q60 47 131 47q57 0 93 -39 l5 10q9 14 16.5 18t24.5 4h81q-28 -51 -50 -147t-22 -169q0 -42 15.5 -58.5t57.5 -17.5l-6 -21q-18 -63 -78 -63q-33 0 -57.5 20t-35.5 55q-53 -75 -133 -75q-70 0 -114.5 50.5t-44.5 130.5zM198 100q45 0 78 72q13 28 24 75.5t11 76.5q0 19 -10 30t-27 11q-43 0 -79 -63 t-36 -139q0 -63 39 -63z" />
<glyph unicode="&#xe6;" horiz-adv-x="678" d="M11 122q0 38 20.5 72.5t54.5 53.5q64 36 163 36q20 0 36 -1l5 31q1 5 1 14q0 50 -87 50q-71 0 -129 -50l-11 68q-2 11 -2 20q0 23 47 41.5t108 18.5q56 0 91.5 -15.5t61.5 -50.5q74 66 162 66q60 0 94.5 -27t34.5 -74q0 -90 -96 -144q-60 -35 -162 -40q0 -4 -0.5 -8.5 t-1 -7t-0.5 -4.5q0 -71 70 -71q57 0 147 64l-11 -70q-7 -44 -31 -64q-20 -17 -56.5 -28t-72.5 -11q-84 0 -139 64q-67 -64 -146 -64q-65 0 -108 37.5t-43 93.5zM414 269q27 6 30 7q47 11 76 35.5t29 53.5q0 25 -25 25q-34 0 -63.5 -32.5t-46.5 -88.5zM144 138 q0 -19 12.5 -30.5t33.5 -11.5q26 0 51 17q19 14 25 51l8 51q-58 -3 -86 -16q-44 -22 -44 -61z" />
<glyph unicode="&#xe7;" horiz-adv-x="446" d="M107 -99q32 -24 70 -24q37 0 37 26q0 30 -54 30q-7 0 -12 -1l11 63q-135 33 -135 185q0 64 27.5 126t74.5 106q69 64 165 64q69 0 110 -29.5t41 -79.5q0 -49 -40.5 -84t-96.5 -35q-17 0 -23.5 8t-6.5 27q0 23 4 44h9q17 0 28.5 9t11.5 22q0 11 -10 18.5t-26 7.5 q-48 0 -90 -65.5t-42 -140.5q0 -79 69 -79t162 67l-9 -58q-7 -45 -14.5 -59t-32.5 -27q-50 -26 -119 -31l-5 -32q69 -3 69 -58q0 -32 -26.5 -51.5t-70.5 -19.5q-31 0 -56 10.5t-25 24.5q0 5 1 11z" />
<glyph unicode="&#xe8;" horiz-adv-x="428" d="M228 543l-94 122h137l52 -122h-95zM22 175q0 123 77 212t183 89q60 0 94.5 -27.5t34.5 -74.5q0 -78 -70 -128.5t-186 -55.5q-1 -9 -1 -19q0 -35 17.5 -53.5t49.5 -18.5q55 0 147 63l-9 -58q-8 -54 -28 -71q-23 -19 -61 -31t-75 -12q-79 0 -126 50.5t-47 134.5zM167 268 q5 1 12 3q55 11 88 36.5t33 57.5q0 25 -26 25q-33 0 -61.5 -33t-45.5 -89z" />
<glyph unicode="&#xe9;" horiz-adv-x="428" d="M247 543l80 122h137l-122 -122h-95zM22 175q0 123 77 212t183 89q60 0 94.5 -27.5t34.5 -74.5q0 -78 -70 -128.5t-186 -55.5q-1 -9 -1 -19q0 -35 17.5 -53.5t49.5 -18.5q55 0 147 63l-9 -58q-8 -54 -28 -71q-23 -19 -61 -31t-75 -12q-79 0 -126 50.5t-47 134.5zM167 268 q5 1 12 3q55 11 88 36.5t33 57.5q0 25 -26 25q-33 0 -61.5 -33t-45.5 -89z" />
<glyph unicode="&#xea;" horiz-adv-x="428" d="M149 546l105 116h123l54 -116h-88l-33 65l-64 -65h-97zM22 175q0 123 77 212t183 89q60 0 94.5 -27.5t34.5 -74.5q0 -78 -70 -128.5t-186 -55.5q-1 -9 -1 -19q0 -35 17.5 -53.5t49.5 -18.5q55 0 147 63l-9 -58q-8 -54 -28 -71q-23 -19 -61 -31t-75 -12q-79 0 -126 50.5 t-47 134.5zM167 268q5 1 12 3q55 11 88 36.5t33 57.5q0 25 -26 25q-33 0 -61.5 -33t-45.5 -89z" />
<glyph unicode="&#xeb;" horiz-adv-x="428" d="M382 541q-27 0 -42.5 15t-15.5 42q0 29 20.5 49t50.5 20q26 0 41.5 -16t15.5 -43q0 -29 -19.5 -48t-50.5 -19zM202 541q-28 0 -43.5 15t-15.5 41q0 30 20.5 50t50.5 20q26 0 42 -16t16 -43q0 -29 -20 -48t-50 -19zM22 175q0 123 77 212t183 89q60 0 94.5 -27.5 t34.5 -74.5q0 -78 -70 -128.5t-186 -55.5q-1 -9 -1 -19q0 -35 17.5 -53.5t49.5 -18.5q55 0 147 63l-9 -58q-8 -54 -28 -71q-23 -19 -61 -31t-75 -12q-79 0 -126 50.5t-47 134.5zM167 268q5 1 12 3q55 11 88 36.5t33 57.5q0 25 -26 25q-33 0 -61.5 -33t-45.5 -89z" />
<glyph unicode="&#xec;" horiz-adv-x="267" d="M124 543l-94 122h137l52 -122h-95zM35 107q0 17 10 80l26 163q6 40 6 65q0 17 -4 36l152 24l-47 -296q-6 -36 -6 -53q0 -40 44 -40q3 0 33 2l-28 -62q-15 -35 -60 -35q-60 0 -93 30.5t-33 85.5z" />
<glyph unicode="&#xed;" horiz-adv-x="267" d="M123 543l80 122h137l-122 -122h-95zM35 107q0 16 10 80l26 163q7 43 7 65q0 19 -5 36l152 24l-47 -296q-6 -35 -6 -53q0 -40 44 -40q2 0 34 2l-29 -62q-17 -35 -60 -35q-60 0 -93 30.5t-33 85.5z" />
<glyph unicode="&#xee;" horiz-adv-x="267" d="M21 546l105 116h123l54 -116h-88l-33 65l-64 -65h-97zM35 107q0 21 9 80l26 163q7 46 7 65q0 17 -4 36l151 24l-46 -296q-6 -45 -6 -53q0 -40 44 -40q1 0 33 2l-29 -62q-17 -35 -59 -35q-60 0 -93 30.5t-33 85.5z" />
<glyph unicode="&#xef;" horiz-adv-x="267" d="M257 541q-25 0 -38.5 14.5t-13.5 40.5q0 30 18.5 50.5t46.5 20.5q23 0 37 -15.5t14 -41.5q0 -30 -18 -49.5t-46 -19.5zM94 541q-24 0 -38 15t-14 40q0 30 19 50.5t46 20.5q23 0 37 -15.5t14 -41.5q0 -30 -18 -49.5t-46 -19.5zM35 107q0 16 10 80l26 163q7 43 7 65 q0 19 -5 36l152 24l-47 -296q-6 -35 -6 -53q0 -40 44 -40q2 0 34 2l-29 -62q-17 -35 -60 -35q-60 0 -93 30.5t-33 85.5z" />
<glyph unicode="&#xf0;" d="M30 173q0 66 15.5 119t39.5 86.5t56.5 55.5t63.5 31t63 9q40 0 62 -19q-8 49 -44 83l-201 -68l-30 85l155 50q-38 16 -125 25l100 82q101 -11 160 -58l175 58l30 -85l-135 -45q65 -81 65 -207q0 -88 -18 -157.5t-45 -110.5t-62 -68t-65 -37t-58 -10q-90 0 -146 47.5 t-56 133.5zM226 99q39 0 65.5 36.5t36 76.5t9.5 73q0 41 -13.5 61t-46.5 20q-52 0 -81 -53t-29 -120q0 -94 59 -94z" />
<glyph unicode="&#xf1;" horiz-adv-x="535" d="M192 555l-37 33q63 72 122 72q23 0 79 -19q51 -16 70 -16q29 0 61 29l38 -32q-60 -75 -113 -75q-24 0 -77 19q-56 20 -82 20t-61 -31zM37 0l50 309q3 18 3 35q0 42 -50 42q-11 0 -27 -5l32 61q9 17 20.5 23.5t34.5 6.5q71 0 101 -58q69 59 149 59q59 0 93.5 -27t34.5 -74 q0 -22 -4 -43l-27 -169q-3 -16 -3 -33q0 -42 52 -42q8 0 26 3l-21 -51q-11 -26 -26.5 -36t-43.5 -10q-59 0 -91 29.5t-32 83.5q0 30 6 63l23 144q2 16 2 24q0 29 -25 29q-36 0 -64 -26.5t-35 -67.5l-44 -270h-134z" />
<glyph unicode="&#xf2;" d="M256 543l-94 122h137l52 -122h-95zM26 200q0 66 26.5 126.5t72.5 97.5q65 53 159 53q89 0 137 -51.5t48 -148.5q0 -124 -71 -205t-181 -81q-89 0 -140 56t-51 153zM223 100q61 0 90 78q21 55 21 108q0 43 -14.5 62.5t-45.5 19.5q-47 0 -78.5 -49.5t-31.5 -125.5 q0 -93 59 -93z" />
<glyph unicode="&#xf3;" d="M249 543l80 122h137l-122 -122h-95zM26 200q0 66 26.5 126.5t72.5 97.5q65 53 159 53q89 0 137 -51.5t48 -148.5q0 -124 -71 -205t-181 -81q-89 0 -140 56t-51 153zM223 100q61 0 90 78q21 55 21 108q0 43 -14.5 62.5t-45.5 19.5q-47 0 -78.5 -49.5t-31.5 -125.5 q0 -93 59 -93z" />
<glyph unicode="&#xf4;" d="M170 546l105 116h123l54 -116h-88l-33 65l-64 -65h-97zM26 200q0 66 26.5 126.5t72.5 97.5q65 53 159 53q89 0 137 -51.5t48 -148.5q0 -124 -71 -205t-181 -81q-89 0 -140 56t-51 153zM223 100q61 0 90 78q21 55 21 108q0 43 -14.5 62.5t-45.5 19.5q-47 0 -78.5 -49.5 t-31.5 -125.5q0 -93 59 -93z" />
<glyph unicode="&#xf5;" d="M182 555l-37 33q63 72 122 72q23 0 79 -19q51 -16 70 -16q29 0 61 29l38 -32q-60 -75 -113 -75q-24 0 -77 19q-56 20 -82 20t-61 -31zM26 200q0 66 26.5 126.5t72.5 97.5q65 53 159 53q89 0 137 -51.5t48 -148.5q0 -124 -71 -205t-181 -81q-89 0 -140 56t-51 153z M223 100q61 0 90 78q21 55 21 108q0 43 -14.5 62.5t-45.5 19.5q-47 0 -78.5 -49.5t-31.5 -125.5q0 -93 59 -93z" />
<glyph unicode="&#xf6;" d="M411 541q-27 0 -42.5 15t-15.5 42q0 29 20.5 49t50.5 20q26 0 41.5 -16t15.5 -43q0 -29 -19.5 -48t-50.5 -19zM231 541q-28 0 -43.5 15t-15.5 41q0 30 20.5 50t50.5 20q26 0 42 -16t16 -43q0 -29 -20 -48t-50 -19zM26 200q0 66 26.5 126.5t72.5 97.5q65 53 159 53 q89 0 137 -51.5t48 -148.5q0 -124 -71 -205t-181 -81q-89 0 -140 56t-51 153zM223 100q61 0 90 78q21 55 21 108q0 43 -14.5 62.5t-45.5 19.5q-47 0 -78.5 -49.5t-31.5 -125.5q0 -93 59 -93z" />
<glyph unicode="&#xf7;" horiz-adv-x="500" d="M263 476q-22 0 -38 16.5t-16 38.5t16 38t39 16q22 0 38 -16t16 -38q0 -23 -16 -39t-39 -16zM24 322v69h478v-69h-478zM208 183q0 22 16 38t39 16q22 0 38 -16t16 -38t-16 -38.5t-38 -16.5q-23 0 -39 16t-16 39z" />
<glyph unicode="&#xf8;" d="M-24 13l74 71q-24 48 -24 112q0 69 26.5 129t73.5 99q63 53 158 53q80 0 128 -45l68 65l40 -44l-72 -69q21 -44 21 -109q0 -123 -71.5 -203.5t-181.5 -80.5q-77 0 -129 46l-70 -67zM160 190l166 159q-16 27 -52 27q-50 0 -82 -52.5t-32 -133.5zM174 120q16 -28 50 -28 q47 0 78.5 52t35.5 134z" />
<glyph unicode="&#xf9;" horiz-adv-x="517" d="M262 543l-94 122h137l52 -122h-95zM45 94q0 13 4 43l27 172q3 18 3 36q0 22 -9.5 28t-44.5 8l29 65q12 26 54 26q49 0 78 -29.5t29 -78.5q0 -29 -4 -53l-28 -174q-1 -6 -1 -17q0 -25 25 -25q40 0 68 39q22 31 32 94l20 124q6 37 6 62q0 20 -4 37l152 24l-49 -305 q-4 -25 -4 -42q0 -23 11 -33t37 -10q8 0 30 3l-24 -55q-19 -42 -71 -42q-78 0 -99 58q-62 -59 -142 -59q-59 0 -92 27.5t-33 76.5z" />
<glyph unicode="&#xfa;" horiz-adv-x="517" d="M247 543l80 122h137l-122 -122h-95zM45 94q0 13 4 43l27 172q3 18 3 36q0 22 -9.5 28t-44.5 8l29 65q12 26 54 26q49 0 78 -29.5t29 -78.5q0 -29 -4 -53l-28 -174q-1 -6 -1 -17q0 -25 25 -25q40 0 68 39q22 31 32 94l20 124q6 37 6 62q0 20 -4 37l152 24l-49 -305 q-4 -25 -4 -42q0 -23 11 -33t37 -10q8 0 30 3l-24 -55q-19 -42 -71 -42q-78 0 -99 58q-62 -59 -142 -59q-59 0 -92 27.5t-33 76.5z" />
<glyph unicode="&#xfb;" horiz-adv-x="517" d="M159 546l105 116h123l54 -116h-88l-33 65l-64 -65h-97zM45 94q0 13 4 43l27 172q3 18 3 36q0 22 -9.5 28t-44.5 8l29 65q12 26 54 26q49 0 78 -29.5t29 -78.5q0 -29 -4 -53l-28 -174q-1 -6 -1 -17q0 -25 25 -25q40 0 68 39q22 31 32 94l20 124q6 37 6 62q0 20 -4 37 l152 24l-49 -305q-4 -25 -4 -42q0 -23 11 -33t37 -10q8 0 30 3l-24 -55q-19 -42 -71 -42q-78 0 -99 58q-62 -59 -142 -59q-59 0 -92 27.5t-33 76.5z" />
<glyph unicode="&#xfc;" horiz-adv-x="517" d="M396 541q-27 0 -42.5 15t-15.5 42q0 29 20.5 49t50.5 20q26 0 41.5 -16t15.5 -43q0 -29 -19.5 -48t-50.5 -19zM216 541q-28 0 -43.5 15t-15.5 41q0 30 20.5 50t50.5 20q26 0 42 -16t16 -43q0 -29 -20 -48t-50 -19zM45 94q0 13 4 43l27 172q3 18 3 36q0 22 -9.5 28 t-44.5 8l29 65q12 26 54 26q49 0 78 -29.5t29 -78.5q0 -29 -4 -53l-28 -174q-1 -6 -1 -17q0 -25 25 -25q40 0 68 39q22 31 32 94l20 124q6 37 6 62q0 20 -4 37l152 24l-49 -305q-4 -25 -4 -42q0 -23 11 -33t37 -10q8 0 30 3l-24 -55q-19 -42 -71 -42q-78 0 -99 58 q-62 -59 -142 -59q-59 0 -92 27.5t-33 76.5z" />
<glyph unicode="&#xfd;" horiz-adv-x="464" d="M224 543l80 122h137l-122 -122h-95zM78 -46q71 96 71 143q0 24 -27 104t-49 122q-26 52 -77 60l55 70q15 19 41 19q94 0 145 -284l33 74q63 142 63 191q0 8 -1 14h146q-40 -161 -213 -455q-79 -136 -115 -177q-18 -22 -42 -22h-149q27 24 49 50.5t70 90.5z" />
<glyph unicode="&#xfe;" horiz-adv-x="517" d="M24 -88l106 675q8 54 8 66q0 13 -4 37l151 24l-42 -266q44 25 90 25q72 0 115 -48.5t43 -129.5q0 -120 -73.5 -212.5t-168.5 -92.5q-44 0 -75 20l-16 -100q-5 -28 -5 -56q0 -20 9 -41h-179q32 38 41 99zM200 146q0 -46 34 -46q47 0 84 62.5t37 142.5q0 59 -42 59 q-48 0 -78 -64q-13 -31 -24 -78t-11 -76z" />
<glyph unicode="&#xff;" horiz-adv-x="464" d="M369 541q-27 0 -42.5 15t-15.5 42q0 29 20.5 49t50.5 20q26 0 41.5 -16t15.5 -43q0 -29 -19.5 -48t-50.5 -19zM189 541q-28 0 -43.5 15t-15.5 41q0 30 20.5 50t50.5 20q26 0 42 -16t16 -43q0 -29 -20 -48t-50 -19zM78 -46q71 96 71 143q0 24 -27 104t-49 122 q-26 52 -77 60l55 70q15 19 41 19q94 0 145 -284l33 74q63 142 63 191q0 8 -1 14h146q-40 -161 -213 -455q-79 -136 -115 -177q-18 -22 -42 -22h-149q27 24 49 50.5t70 90.5z" />
<glyph unicode="&#x152;" horiz-adv-x="785" d="M46 269q0 94 32.5 181t90.5 148q74 77 194 77q21 0 61 -5q70 -10 121 -10q61 0 135 4q42 3 68 3q28 0 39 -8.5t11 -30.5q0 -9 -2 -27l-8 -68q-63 15 -131 15q-31 0 -62 -2l-21 -133h55q62 0 93 12l-23 -145q-23 15 -79 15h-65l-27 -174q49 -4 80 -4q71 0 139 15l-30 -89 q-8 -25 -21.5 -34t-42.5 -9l-197 2q-32 0 -116 -7q-32 -3 -56 -3q-114 0 -176 72t-62 205zM290 115q64 0 107 55l51 324q-18 58 -87 58q-72 0 -113 -62q-26 -39 -43 -103.5t-17 -122.5q0 -77 25 -113t77 -36z" />
<glyph unicode="&#x153;" horiz-adv-x="713" d="M26 195q0 73 29 135.5t79 100.5q63 46 152 46q86 0 136 -59q72 58 148 58q58 0 92 -28t34 -75q0 -77 -71.5 -128.5t-183.5 -54.5q-2 -18 -2 -21q0 -70 65 -70q61 0 149 61l-11 -67q-5 -32 -11 -43.5t-24 -23.5q-52 -36 -123 -36q-84 0 -124 57q-62 -56 -150 -56 q-85 0 -134.5 55t-49.5 149zM453 267q38 8 56 15q34 13 55 35.5t21 45.5q0 27 -26 27q-32 0 -60.5 -33t-45.5 -90zM222 100q49 0 78 56q30 58 30 134q0 78 -56 78q-49 0 -79.5 -51t-30.5 -131q0 -86 58 -86z" />
<glyph unicode="&#x178;" horiz-adv-x="588" d="M479 731q-28 0 -44.5 15.5t-16.5 41.5q0 31 21 51.5t52 20.5q27 0 43.5 -16.5t16.5 -43.5q0 -30 -20.5 -49.5t-51.5 -19.5zM292 731q-28 0 -44 15.5t-16 42.5q0 30 21 50.5t52 20.5q27 0 43 -16.5t16 -43.5q0 -30 -20.5 -49.5t-51.5 -19.5zM176 0q17 16 26.5 47t21.5 107 l22 144q4 30 4 34q0 63 -70 158q-49 67 -108 67q-12 0 -28 -5l21 82q10 37 64 37q68 0 131 -70q29 -33 44.5 -60.5t39.5 -85.5q57 100 129 177q22 24 33 29.5t39 5.5h141q-79 -64 -171 -178q-77 -97 -101 -138t-31 -86l-20 -127q-11 -72 -11 -97q0 -20 11 -41h-187z" />
<glyph unicode="&#x2c6;" horiz-adv-x="500" d="M144 546l105 116h123l54 -116h-88l-33 65l-64 -65h-97z" />
<glyph unicode="&#x2dc;" horiz-adv-x="500" d="M160 555l-37 33q63 72 122 72q23 0 79 -19q51 -16 70 -16q29 0 61 29l38 -32q-60 -75 -113 -75q-24 0 -77 19q-56 20 -82 20t-61 -31z" />
<glyph unicode="&#x2000;" horiz-adv-x="453" />
<glyph unicode="&#x2001;" horiz-adv-x="907" />
<glyph unicode="&#x2002;" horiz-adv-x="453" />
<glyph unicode="&#x2003;" horiz-adv-x="907" />
<glyph unicode="&#x2004;" horiz-adv-x="302" />
<glyph unicode="&#x2005;" horiz-adv-x="226" />
<glyph unicode="&#x2006;" horiz-adv-x="151" />
<glyph unicode="&#x2007;" horiz-adv-x="151" />
<glyph unicode="&#x2008;" horiz-adv-x="113" />
<glyph unicode="&#x2009;" horiz-adv-x="181" />
<glyph unicode="&#x200a;" horiz-adv-x="50" />
<glyph unicode="&#x2010;" horiz-adv-x="267" d="M27 202l17 105h200l-17 -105h-200z" />
<glyph unicode="&#x2011;" horiz-adv-x="267" d="M27 202l17 105h200l-17 -105h-200z" />
<glyph unicode="&#x2012;" horiz-adv-x="267" d="M27 202l17 105h200l-17 -105h-200z" />
<glyph unicode="&#x2013;" horiz-adv-x="464" d="M32 203l16 104h388l-17 -104h-387z" />
<glyph unicode="&#x2014;" horiz-adv-x="695" d="M32 203l16 104h619l-16 -104h-619z" />
<glyph unicode="&#x2018;" horiz-adv-x="232" d="M139 424q-32 0 -51 19t-19 52q0 67 59 118.5t146 62.5l4 -13q-69 -27 -98 -89q46 -23 46 -66q0 -36 -25 -60t-62 -24z" />
<glyph unicode="&#x2019;" horiz-adv-x="232" d="M54 424l-4 13q38 15 60 35t38 54q-46 23 -46 66q0 36 25 60t62 24q33 0 52 -19.5t19 -52.5q0 -66 -60 -118t-146 -62z" />
<glyph unicode="&#x201a;" horiz-adv-x="268" d="M35 58q0 35 25 59t62 24q32 0 51.5 -19.5t19.5 -51.5q0 -67 -59.5 -118.5t-146.5 -62.5l-4 13q69 27 98 89q-26 14 -36 28.5t-10 38.5z" />
<glyph unicode="&#x201c;" horiz-adv-x="446" d="M350 424q-32 0 -51 19.5t-19 52.5q0 66 59.5 117.5t145.5 62.5l4 -13q-38 -15 -60 -35t-38 -54q25 -13 35.5 -28t10.5 -39q0 -35 -25 -59t-62 -24zM144 424q-32 0 -51 19t-19 52q0 67 59 119t146 62l4 -13q-69 -27 -98 -89q25 -13 35.5 -28t10.5 -39q0 -35 -25 -59 t-62 -24z" />
<glyph unicode="&#x201d;" horiz-adv-x="446" d="M265 424l-4 13q70 28 98 89q-46 23 -46 66q0 36 25 60t62 24q32 0 51.5 -19.5t19.5 -51.5q0 -67 -60 -119t-146 -62zM59 424l-4 13q38 15 60 35t38 54q-46 23 -46 66q0 36 25 60t62 24q33 0 52 -19.5t19 -52.5q0 -66 -60 -118t-146 -62z" />
<glyph unicode="&#x201e;" horiz-adv-x="446" d="M176 -98q69 27 98 89q-26 14 -36 28.5t-10 38.5q0 35 25 59t62 24q32 0 51.5 -19.5t19.5 -51.5q0 -67 -59.5 -118.5t-146.5 -62.5zM22 58q0 35 25 59t62 24q32 0 51.5 -19.5t19.5 -51.5q0 -67 -59.5 -118.5t-146.5 -62.5l-4 13q70 29 98 89q-26 14 -36 28.5t-10 38.5z " />
<glyph unicode="&#x2022;" horiz-adv-x="667" d="M209 339q0 58 41 98.5t100 40.5q55 0 95.5 -41t40.5 -97q0 -58 -40.5 -98.5t-97.5 -40.5t-98 40.5t-41 97.5z" />
<glyph unicode="&#x2026;" horiz-adv-x="802" d="M562 63q0 35 26 60t62 25q31 0 50.5 -19.5t19.5 -50.5q0 -35 -25.5 -60.5t-59.5 -25.5q-32 0 -52.5 20t-20.5 51zM294 63q0 35 26 60t63 25q31 0 50.5 -19.5t19.5 -50.5q0 -34 -25.5 -60t-60.5 -26q-32 0 -52.5 20t-20.5 51zM27 63q0 35 26 60t63 25q31 0 50.5 -19.5 t19.5 -50.5q0 -34 -26 -60t-60 -26q-32 0 -52.5 20t-20.5 51z" />
<glyph unicode="&#x202f;" horiz-adv-x="181" />
<glyph unicode="&#x2039;" horiz-adv-x="372" d="M195 117q-52 66 -79 93.5t-72 58.5q69 38 109 69.5t86 84.5h90q-41 -105 -125 -159q62 -65 85 -147h-94z" />
<glyph unicode="&#x203a;" horiz-adv-x="372" d="M51 115q41 105 125 158q-61 65 -85 147h94q49 -64 77 -91.5t74 -59.5q-70 -38 -109 -69t-86 -85h-90z" />
<glyph unicode="&#x205f;" horiz-adv-x="226" />
<glyph unicode="&#x20ac;" horiz-adv-x="669" d="M33 219l53 94h55q0 20 3 44h-92l54 94h60q39 109 124.5 166.5t207.5 57.5q95 0 157 -32l-61 -110q-18 29 -81 29t-115.5 -29.5t-80.5 -81.5h230l-53 -94h-206q-3 -24 -3 -44h184l-53 -94h-116q37 -104 149 -104q32 0 88 11l-18 -127q-38 -7 -80 -7q-116 0 -191.5 59.5 t-97.5 167.5h-117z" />
<glyph unicode="&#x2122;" horiz-adv-x="902" d="M132 267q14 12 20 29t13 65l36 228q-7 1 -17 1q-84 0 -122 -23l13 60q5 24 27 32.5t79 8.5q35 0 90 -3q54 -3 78 -3q65 0 99 17l-18 -55q-7 -23 -23 -31.5t-51 -8.5q-2 0 -59 3l-37 -235q-6 -40 -6 -56q0 -12 9 -29h-131zM414 267q14 13 19 25.5t16 68.5l43 221 q7 35 7 51q0 18 -11 34h103l78 -266l163 266h105q-21 -20 -31 -94l-31 -221q-5 -34 -5 -55q0 -15 10 -30h-130q16 16 20 31q9 31 15 63l24 140l-138 -234h-43l-66 235l-23 -150q-6 -37 -6 -57q0 -13 9 -28l-108 6z" />
<glyph unicode="&#xe000;" horiz-adv-x="470" d="M0 470h470v-470h-470v470z" />
<glyph unicode="&#xfb01;" horiz-adv-x="570" d="M61 111l40 250h-25q-18 0 -32 -2l12 73q5 35 36 35h26l15 98q12 76 50.5 111t110.5 35q85 0 85 -47q0 -7 -8 -26l-21 -51q-20 15 -41 15q-20 0 -30.5 -16t-16.5 -56l-10 -63h135q66 0 141 9l-47 -296q-6 -36 -6 -54q0 -40 44 -40q5 0 33 2l-28 -62q-15 -35 -60 -35 q-59 0 -92.5 30t-33.5 85q0 22 10 81l19 117q3 24 3 34q0 14 -8.5 18.5t-35.5 4.5h-91l-41 -258q-25 -158 -64 -238q-14 -29 -28.5 -40.5t-36.5 -11.5h-119q41 37 68.5 107t46.5 191zM488 548q-30 0 -48 16.5t-18 44.5q0 32 24 55t58 23q29 0 47 -17t18 -44q0 -34 -23 -56 t-58 -22z" />
<glyph unicode="&#xfb02;" horiz-adv-x="571" d="M338 101q0 25 10 88l63 397q8 52 8 67q0 16 -5 37l152 23l-85 -535q-6 -38 -6 -54q0 -39 48 -39q9 0 29 3l-29 -64q-16 -33 -61 -33q-59 0 -91.5 29t-32.5 81zM61 111l40 250h-25q-18 0 -32 -2l12 73q5 35 36 35h26l15 98q12 76 50.5 111t110.5 35q85 0 85 -47 q0 -7 -8 -26l-21 -51q-20 15 -41 15q-20 0 -30.5 -16t-16.5 -56l-10 -63h26q14 0 36 3l-10 -66q-6 -43 -42 -43h-27l-41 -258q-26 -159 -64 -238q-14 -29 -28.5 -40.5t-36.5 -11.5h-119q42 37 69 106.5t46 191.5z" />
<glyph unicode="&#xfb03;" horiz-adv-x="874" d="M61 111l40 250h-25q-18 0 -32 -2l12 73q5 35 36 35h26l15 98q12 76 50.5 111t110.5 35q85 0 85 -46q0 -6 -8 -27l-21 -51q-18 15 -41 15q-19 0 -30 -16.5t-17 -55.5l-10 -63h169l16 98q13 77 51 111.5t110 34.5q85 0 85 -47q0 -8 -8 -26l-21 -51q-20 15 -41 15 q-20 0 -31 -16t-17 -56l-9 -63h134q66 0 141 9l-46 -296q-6 -36 -6 -54q0 -40 44 -40q3 0 33 2l-29 -62q-17 -35 -59 -35q-60 0 -93 30t-33 85q0 26 9 81l19 117q3 21 3 34q0 14 -8.5 18.5t-35.5 4.5h-90l-41 -258q-25 -154 -65 -238q-14 -29 -28.5 -40.5t-35.5 -11.5h-120 q42 37 69.5 106.5t46.5 191.5l39 250h-169l-41 -258q-25 -157 -64 -238q-14 -29 -28.5 -40.5t-36.5 -11.5h-119q79 70 115 298zM723 609q0 32 24 55t58 23q29 0 47 -17t18 -44q0 -34 -23 -56t-58 -22q-30 0 -48 16.5t-18 44.5z" />
<glyph unicode="&#xfb04;" horiz-adv-x="874" d="M641 101q0 24 10 88l63 397q8 49 8 67q0 13 -4 37l151 23l-85 -535q-6 -42 -6 -54q0 -39 48 -39q10 0 29 3l-29 -64q-14 -33 -61 -33q-59 0 -91.5 29t-32.5 81zM61 111l40 250h-25q-18 0 -32 -2l12 73q5 35 36 35h26l15 98q12 77 50 111.5t112 34.5q84 0 84 -46 q0 -6 -8 -27l-21 -51q-18 15 -41 15q-19 0 -30 -16.5t-17 -55.5l-10 -63h169l16 98q13 77 51 111.5t111 34.5q84 0 84 -46q0 -9 -8 -27l-21 -51q-20 15 -41 15q-20 0 -31 -16.5t-17 -55.5l-10 -63h26q22 0 37 3l-11 -66q-8 -43 -42 -43h-26l-41 -258q-24 -150 -65 -238 q-13 -29 -27.5 -40.5t-36.5 -11.5h-120q42 37 69.5 106t46.5 192l39 250h-169l-41 -258q-25 -157 -64 -238q-14 -29 -28.5 -40.5t-36.5 -11.5h-119q79 70 115 298z" />
</font>
</defs>
</svg>
